<svg xmlns="http://www.w3.org/2000/svg" xmlns:xlink="http://www.w3.org/1999/xlink" viewBox="0 0 1475 695"><style>.st2{fill:#fff}.st4{fill:#f1ddc1}.st5{fill:#552b2a}.st6{fill:#d68590}.st7{fill:#713938}.st12{fill:#fbe8c9}.st13{fill:#bcae97}.st17{fill:#eeefc3}.st18{fill:#5f552c}.st19{fill:#9e976a}.st20{fill:#392c19}.st21{fill:#4c3522}.st22{fill:none;stroke:#392c19;stroke-width:2.16;stroke-miterlimit:22.9256}.st23{fill:#93363c}.st24{fill:#f75862}.st25{fill:#b54149}.st29{fill:#df5059}.st30{fill:#d7d7b0}.st31{fill:#ba4b00}.st33{fill:#768975}.st34{fill:#ccdb9b}.st35{fill:#c6c89d}.st36{fill:#c0ce92}.st37{fill:#cccea7}.st38{fill:#bcc995}.st39{fill:#d1dfa5}.st40{fill:#c7d39d}.st41{fill:#cdd8a7}.st42{fill:#80a649}.st43{fill:#7e9e3c}.st44{fill:#76482e}.st45{fill:#759f3c}.st46{fill:#8eb851}.st47{fill:#576f31}.st48{fill:#4c6025}.st49{fill:#482d1d}.st50{fill:#486025}.st51{fill:#485a29}.st52{fill:#3b2519}.st53{fill:#3b4f1f}.st54{fill:#40381c}.st55{fill:#a5a560}.st56{fill:#46462d}.st57{fill:#f4b762}.st58{fill:#bf8e49}.st59{fill:#cf9b51}.st60{fill:#e0a859}.st61{fill:#5c5c42}.st62{fill:#6d6d53}.st63{fill:#313131}.st64{fill:#f2af6c}.st65{fill:#b88151}.st66{fill:#c98f59}.st67{fill:#dc9e62}.st68{fill:#494949}.st69{fill:#5c5c5c}.st70{fill:#c23946}.st71{fill:#8a2d31}.st72{fill:#3a3a3f}.st74{fill:#c2c29f}.st75{fill:#c94851}.st76{fill:#c58f59}.st79{fill:#f9af63}.st81{fill:#406669}.st82{fill:#3a5c5f}.st83{fill:#355356}</style><defs><path id="SVGID_1_" d="M-37-42h1576v737H-37z"/></defs><clipPath id="SVGID_2_"><use overflow="visible" xlink:href="#SVGID_1_"/></clipPath><g clip-path="url(#SVGID_2_)"><path fill="#c8c7c6" d="M225 429c5-4 11-7 17-9a56 56 0 0 1-5-58h-1c-16 0-29-13-29-30 0-10 5-20 14-25a17 17 0 0 1-1-31c-4-3-6-8-6-13 0-9 7-16 16-16 9-1 17 7 17 16l-1 6h1c9 0 16 8 16 17l-1 6c14 3 23 15 23 29l-2 11h2c30 0 54 25 54 55l-3 18h6c25 2 46 20 52 44 8-6 17-9 26-8 13 1 25 9 30 20a24 24 0 0 1 39-2 27 27 0 0 1 54-3c4-5 10-8 17-8 13-1 24 10 24 23s-10 24-23 24c-10 0-19-6-23-15a27 27 0 0 1-43 0l-2 6a24 24 0 0 1-39 8l-4 1a36 36 0 0 1-56 11l-16 4a58 58 0 0 1-60 12l-74 15c-23-8-39-28-42-52-4-34 22-55 23-56z"/><path d="M548 511a97 97 0 0 0-104-149 99 99 0 0 0-77 117c4 19 14 36 28 50-12 10-22 25-28 39l181-57" class="st2"/><path d="M58 567l3-10a67 67 0 0 1 103-26 57 57 0 0 1 63-59c-4-13-3-27 3-40 12-28 45-41 74-28 27 12 39 42 31 69 5 1 52 4 70 36 21 36 2 100-58 133l-98 42-88-41-4 2c-28 16-66 0-87-10-15-7-24-22-25-37 0-17 11-29 13-31z" class="st2"/><path fill="#fcf1de" d="M1182 503c-4-10-6-24-6-24-2-10-52-36-61-29-7 5-19 9-25 10a897 897 0 0 0-524-44c-19-3-47-27-47-27-14-7-104 21-108 40-3 16-16 39-19 44A958 958 0 0 0 37 751h1427a830 830 0 0 0-282-248z"/><ellipse cx="1155" cy="636" class="st4" rx="63" ry="64"/><ellipse cx="427" cy="603" class="st4" rx="36" ry="36"/><path d="M269 751c0-35 28-63 62-63s62 28 62 63H269z" class="st4"/><ellipse cx="521" cy="587" class="st4" rx="20" ry="20"/><ellipse cx="1045" cy="675" class="st4" rx="24" ry="25"/></g><path d="M211 240s-4 0-5 6l1 18s1 1 2 0l5-14-3-10zm28-5s3-2 7 2l6 18s-1 2-2 1l-10-11-1-11z" class="st5"/><path d="M216 251l22-4a2 2 0 1 0-1-4l-21 5-2 2c0 1 1 2 2 1z" class="st6"/><path d="M214 250c-15-35 3-50 3-50s22 7 23 45l-26 5z" class="st7"/><path d="M211 210c2-7 6-10 6-10s5 1 10 7c0 0-8 4-16 3z" class="st6"/><ellipse cx="222" cy="224" fill="#a0656d" rx="9" ry="9"/><ellipse cx="222" cy="224" class="st6" rx="8" ry="8"/><path d="M220 218h2l-1-1-1 1zm3 13l1-1-1-1v2zm-8-5h1v-1h-1zm13-3v1l1-1-1-1v1zm-3-4l1 1 1-1-1-1-1 1zm-9 2h1l-1-1v1zm11 7h1v-1h-1v1zm-9 2l1-1h-1v1z" class="st7"/><circle cx="222" cy="224" r="5" fill="#061014"/><path fill="none" stroke="#713938" stroke-linecap="round" stroke-linejoin="round" d="M224 226l-5-3m3 4l-3-3"/><path d="M230 261l1-3-3-19-3-2-2 3 5 19 2 2z" class="st5"/><path fill="#e4ceb0" d="M1380 127s10 0 12 5l-10 25-6-26 4-4z"/><path d="M1343 126s-13-4-19-4-18 3-23 5c0 0-5 7 1 11 0 1 18-1 22 1l11 3 12-13-4-3zm-42 1s-9-3-11-1l4 2s-9 1-9 2l9 1s-9 0-9 2l9 1s-7 2-7 3h8l-2 5c-1 2 4 1 9-3l-1-12z" class="st12"/><path d="M1302 140l-1-1c-3-3-4-9-1-13l2-1v3c-1 3-1 7 2 10l-1 2h-1zm19-18v16s0 2 3 1c0 0 5-8 4-17h-7zm15 21l-1-1c4-9 9-12 9-13l1 1s-5 4-9 13z" class="st13"/><path d="M1346 129s-18 13-13 38c0 0-15 7-19 11l-8 21s-8 4-9 9 14 5 23 0l6-18 14-3v2l-1 8c0 6 2 13 5 19 0 0-3 13 2 19s15-8 14-21c0 0-5-10-4-15l9-20s5-4 5-15l1-29-25-6z" class="st12"/><path d="M1344 147c0 2-1 4-3 4s-4-2-4-4 2-3 4-3 3 1 3 3z" class="st7"/><path d="M1320 210h-1c-14-4-15-10-15-10l2-2 1 1c0 1 1 5 13 8l1 1-1 2zm-3-34s8 8 9 14l-15-7s0-5 6-7zm25 3l-1-1c-3-8-8-9-8-10l-1-1c0-1 1-2 2-1 0 0 7 2 10 11l-1 2h-1zm9 40l-7-2-1-2h2s7 4 14-2h2v2c-3 3-7 4-11 4zm5-18c-5 4-16 4-17 2v-5c8-4 17 0 17 0v3zm9-21h-1s-11-8-22-1h-2v-2c13-9 26 0 26 0l1 3h-2zm-26 7l2-10h1l-2 10z" class="st13"/><ellipse cx="1362" cy="116" class="st12" rx="23" ry="23"/><path fill="#152123" d="M1366 137h-5c-12 0-21-9-21-21 0-5 1-10 5-14h2c1 3 7 9 26 7l2 1c1 6 1 19-8 26l-1 1z"/><path d="M1382 187s-2 12-4 14l-1-5s-3 9-4 8l1-8s-2 8-4 8l1-9s-3 6-4 6l1-8-4 1c-2 1-1-4 5-8l13 1zm-6-52s-11-1-14 8l8 21v8l-2 13s5 4 14 2c0 0 6-13 5-25l-11-27z" class="st12"/><path d="M1376 190c-3 0-6-1-8-3v-2h2s4 4 11 0l2 1v2l-7 2zm-5-22s14-1 16-6v8s-8 3-16 0v-2zm-8-21h-1l-1-2c2-11 11-12 16-12 1 0 2 1 1 2 0 2-1 2-2 2s-10-1-11 8l-2 2z" class="st13"/><path fill="#f1ecd3" d="M233 356l-6 6-3 6v1l-4 1-7 3-4 3 11-5 6-1 4-1 2-1-2 1h-3v-1c-1-1 2-5 3-5 2-3 3-4 3-7"/><path fill="#b7bbb3" d="M432 448c13-34 27-68 43-101 6-11 18-17 30-17a50 50 0 0 1 18 4 1312 1312 0 0 1 158 72h2a1503 1503 0 0 0-159-73l-10-3-9-1c-13 0-26 6-32 18-15 33-30 67-43 101l2-1m268-42a1489 1489 0 0 0-172-80 77 77 0 0 0-22-4c-17-1-33 8-41 23-17 35-32 71-46 107l10-3c13-34 27-68 43-102 7-12 20-18 33-18l10 1 10 3a1273 1273 0 0 1 161 74l14-1m-11-2l-2-1v4h3l-1-3m-10-6l-2-1 1 10h2l-1-9m-11-5l-2-2 1 17h2l-1-16m-10-5l-2-1 2 23h2l-2-22m-11-6l-2-1 2 30h2l-2-29m-11-5l-2-1 4 36 1-1-3-34m-11-5l-2-1 5 42h2l-5-41m-11-6l-2-1 6 49h1l-5-48m-11-5l-2-1 6 55h2l-6-54m-11-5l-2-1 8 61h1l-7-60m-12-5l-2-1 9 67h2l-9-66m-11-5l-2-1 11 74h1l-10-73m-11-5l-3-1 13 81 2-1-13-79m-11-4l-3-1 15 86h2l-14-85m-12-4l-2-1 16 92h2l-16-91m-11-2l-2-1 17 96 2-1-17-95m-12-2h-2l19 99h2l-19-99m-11-1h-2l20 102h2l-20-102m-11 3l-2 1 21 100h2l-21-101m-10 5l-1 2 20 96h2l-21-98m-9 9v1l-1 2 19 88h2l-20-91m-7 15l-2 3 18 76 2-1-18-78m-8 16l-1 3 15 62h2l-16-65m-7 15l-1 3 12 49h2l-13-52m-7 16l-1 3 9 36 2-1-10-38m-7 15v1l-1 2 6 23h2l-7-26m255-16l-2-1v4h3l-1-3m-10-6l-2-1v5l2 1v-5m-87-43l-2-1v5l2 2v-6m-12-5l-2-1 1 5 2 2-1-6m-11-5l-2-1 1 6 2 1-1-6m-114 29l-1 3 2 7 1-3-2-7m235 33v-2c-89 5-177 20-262 43l-1 2c86-23 174-38 263-43m-15-11l-2-1c-82 6-162 19-240 40l-1 2c79-22 161-35 243-41m-19-10l-3-1c-72 6-145 18-216 37v1c72-18 145-31 219-37m-22-11c-65 7-129 18-191 34l-1 1c64-16 129-27 195-34l-3-1m-20-9c-56 6-111 16-166 29l-1 2c56-13 113-23 170-30l-3-1m-21-9c-47 6-93 14-140 25v2c47-11 95-20 143-26l-3-1m-20-9c-38 5-76 13-114 21l-1 2c39-9 78-16 118-22l-3-1m-21-8c-29 4-58 10-87 16l-1 2c30-7 60-12 91-17l-3-2m-22-8l-58 12-1 2c21-5 41-9 62-12l-3-2"/><path d="M619 260l15-2 18 195-14 1-19-194" class="st17"/><path d="M629 252l-6 1 20 203 5-1-19-203" class="st18"/><path d="M636 302l-10 1 1 18h11l-2-19" class="st19"/><path d="M625 253h2l19 203h-2l-19-203m9-1h1l18 203h-2l-17-203m-17 2l2-1 20 203h-1l-21-202" class="st20"/><path d="M651 444h-1v5h1v-5m-12 2h-1v5h1l-1-5m12 0l-12 2 12-1v-1m-1-26h-1v5h1v-5m-13 1h-1l1 5h1l-1-5m12 1l-13 1v1l13-1v-1m-2-27h-1l1 5h1l-1-5" class="st21"/><path d="M634 397h-1v5h1v-5m12 0l-13 2 13-1v-1" class="st20"/><path d="M646 397l-13 2 13-1v-1z" class="st22"/><path d="M644 371h-1l1 5h1l-1-5m-13 1h-1l1 5h1l-1-5m13 1l-14 1v1l14-1v-1" class="st20"/><path d="M642 346h-1l1 5h1l-1-5m-13 2h-1v5h1v-5m13 0l-14 2v1l14-2v-1m-2-26h-1v5h1v-5m-14 1h-1l1 5h1l-1-5m14 1l-14 1v1l14-1v-1m-2-27h-1v5h1v-5m-14 2h-1v5h1v-5m13 0l-14 2v1l14-2v-1" class="st21"/><path d="M636 273h-1v5h1v-5m-14 1h-2l1 5h1v-5m13 1l-14 1v1l14-1v-1" class="st20"/><path d="M635 275l-14 1v1l14-1v-1z" class="st22"/><path d="M633 264l-11 1-1-8 11-1 1 8" class="st23"/><path d="M626 248c-8 1-13 6-13 12l27-3c-1-5-7-10-14-9m19 15l-35 4-1-5 36-3v4" class="st24"/><path d="M617 261h2l1 3h-2l-1-3zm5 0h2v2l-2 1-1-3zm4-1h2v3h-2v-3zm4 0h2v3h-2v-3zm4 0l2-1 1 3h-2l-1-2" class="st25"/><path d="M661 262l16-1 11 195-13 1-14-195" class="st17"/><path d="M671 249h-6l14 204h5l-13-204" class="st18"/><path d="M678 325l-10 1 1 18 10-1-1-18" class="st19"/><path d="M668 249h1l13 204h-2l-12-204m8 0h1l12 203h-1l-12-203m-17 1h2l14 203h-2l-14-203" class="st20"/><path d="M687 442h-1v5h1v-5m-12 0h-1v6l1-1v-5m12 2l-13 1v1l13-1v-1m-1-27h-1v5h1v-5m-13 1h-1l1 5h1l-1-5m12 1l-13 1v1l13-1v-1" class="st21"/><path d="M684 393h-1l1 5h1l-1-5m-13 0h-1l1 6 1-1-1-5m13 2h-13v1h13v-1m-1-27h-1v5h1v-5m-13 1h-1v5h1v-5m12 1l-13 1v1l13-1v-1m-1-27h-1l1 6 1-1-1-5m-13 1h-1v5h1v-5m13 2h-14v1l14-1v-1m-1-26h-1v5h1v-5m-14 1h-1l1 5h1l-1-5m14 1a657 657 0 0 0 0 1v-1m-1-27h-1v5h1v-5m-14 1h-1v5h1v-5m13 1l-14 1v1l14-1v-1" class="st20"/><path d="M678 296l-14 1v1l14-1v-1z" class="st22"/><path d="M677 270h-1v5h1v-5m-14 1h-1v5h1v-5m14 1a705 705 0 0 0 0 1v-1" class="st20"/><path d="M675 261l-12 1v-9h11l1 8" class="st23"/><path d="M668 245c-7 0-13 5-13 11l27-2c-1-5-7-10-14-9m19 15l-36 3v-5l36-2v4" class="st24"/><path d="M659 258h2v2h-2v-2zm5-1h2v3h-2v-3zm4 0h2v3h-2v-3zm4 0h2v2h-2v-2zm4-1h2l1 3h-2l-1-2" class="st25"/><path fill="#48564d" d="M663 433l-73-80c-9-8-22-10-33-5l-8 4-8 5a1323 1323 0 0 0-122 121h-2a1401 1401 0 0 1 123-121v-1l8-6 8-4c12-4 26-3 35 6 26 26 50 53 73 81h-1m-262 50a1492 1492 0 0 1 133-133 62 62 0 0 1 19-11c15-6 34-5 45 8 27 27 53 56 77 85l-9 1c-24-28-48-55-74-82-10-9-24-11-36-6l-9 4-8 6v1a1332 1332 0 0 0-125 123l-13 4m9-5l2-2 1 3-2 1-1-2m8-9l2-2 3 10h-2l-3-8m8-9l2-2 4 16-2 1-4-15m8-9l2-2 6 23h-2l-6-21m8-9l2-2 7 29h-2l-7-27m8-9l2-2 9 35-2 1-9-34m9-9l1-1 10 41-2 1-9-41m8-8l2-2 11 48h-2l-11-46m9-9l1-2 13 54-2 1-12-53m8-8l2-2 13 60-2 1-13-59m9-9l2-1 14 66-2 1-14-66m9-8l2-2 15 73-2 1-15-72m9-9l2-1 15 79-2 1-15-79m9-8l2-1 16 86h-2l-16-85m10-7l2-2 16 92h-2l-16-91m10-5l1-1 16 95h-2l-15-94m9-6l2-1 16 99-2 1-16-99m10-6h2l16 103h-2l-16-103m11 0h2l15 102h-2l-15-102m11 2h2l13 98-1 1-14-99m12 5l2 2 11 90h-2l-12-92m13 12l2 2 9 77h-2l-9-79m12 12l2 2 7 64h-2l-8-66m12 12l2 2 6 51h-2l-6-53m12 12l2 2 3 38h-2l-3-40m11 12l1 1 1 2 2 24h-2l-2-27m-241 71l2-2 1 3-2 1-1-2m8-9l2-2 1 5-1 1-2-4m66-70l2-2 1 6-1 1-2-5m9-9l2-1 1 5-2 2-1-6m9-8l2-2 1 6-2 1-1-5m115-11l2 2 1 7-3-2-1-7M412 480v-1c83-25 169-41 255-48l2 2c-87 7-173 23-257 47m10-15l2-2c77-21 155-36 234-42l2 1c-81 7-160 22-238 43m14-15l2-3c70-18 140-31 212-37l1 1c-73 7-145 20-215 39m17-18c62-16 124-26 188-33l1 2a1315 1315 0 0 0-189 31m16-16c53-12 108-22 162-27l2 1c-56 6-112 15-167 28l3-2m15-15c46-10 92-18 138-23l1 2c-47 5-94 13-141 23l2-2m17-15c37-8 74-14 111-18l2 1c-39 5-78 11-116 19l3-3m16-14c29-6 57-10 86-14l1 2c-30 4-60 8-89 14l2-2m17-15l58-9 1 2c-20 2-41 5-61 9l2-2"/><path fill="#364639" d="M483 481h-4l10-12c16-25 24-56 18-85-6-30-27-55-54-69-31-17-67-16-100-8-33 12-62 31-80 62-15 27-18 59-6 88a115 115 0 0 0 77 65l-3 2-12-5c-29-11-52-33-64-61-12-29-10-62 6-89a144 144 0 0 1 184-56c27 14 49 40 54 71a117 117 0 0 1-26 97m-28 7l-5 1c10-8 19-17 26-28 14-23 18-47 15-74-6-26-24-47-47-59-28-14-58-14-87-6-28 8-54 27-69 53a88 88 0 0 0-6 76c12 24 29 42 54 53 12 4 25 7 37 8l-4 2c-12-2-23-5-34-9-24-10-45-29-55-53-10-26-7-54 6-78 15-26 42-46 71-54 28-9 61-8 88 6 24 12 42 34 48 61 5 26-1 53-16 75-6 9-14 18-23 26m-71-80c5-2 9 0 10 4s-1 8-6 9-8 0-9-4 1-8 5-9m2 4l2 2c1 1 0 3-1 3-2 0-3-1-3-2s0-3 2-3m-32-106l33 108-1 1-33-109h1m-9-8l11-4 3 1 2 6c0 2 0 3-2 3l-11 3c-1 1-2 0-3-1l-2-6 2-2zm0 0l-1 2 1 1 1 1 3-1v1l1 1 5-2v-2h2c1 0 2-1 1-2v-1l-2-1-11 3m43 2l-1 115h-1c-1-39-1-77 1-115h1m-6-10l12-1 2 1v7l-2 2-12 1-2-2v-6c0-2 1-2 2-2zm0 0l-1 2v1l1 1h3v1l1 1 4-1h1v-1l3-1 1-1v-1l-1-1h-12m40 12c-13 37-25 75-35 113l-1-1c10-38 21-75 34-112h2m-3-12l11 2 2 2v1l-2 6c-1 1-2 2-3 1l-11-2-2-1v-1l2-6 3-2zm0 1l-2 1v2l1 1h2v2l5 1h1v-1h3l1-1 1-1-1-2-11-2m33 21c-23 33-45 68-65 103l-1-1c20-35 42-69 65-103l1 1m2-12l9 5c1 0 2 1 1 2l-4 6-3 1-10-5-1-2v-1l5-5c0-1 2-2 3-1zm-1 1h-2l-1 2 1 1 2 1-1 1 1 1 3 1h1l1-1 2 2 2-1 1-1v-2l-10-4m25 27c-32 28-62 57-91 87l-1-1a1377 1377 0 0 1 92-86m4-11a483 483 0 0 1 8 9v1l-5 4h-3l-8-6v-3l6-5h2zm0 1h-2l-1 1v2l1 1v1 1l3 3h1l1-1 1 1h2l1-1v-1l-7-7m15 33c-38 19-75 41-110 64l-1-1c36-23 72-45 110-64l1 1m7-10l6 8-1 3-7 3h-3l-5-9 1-2 7-4 2 1zm0 0h-2l-2 1v1l1 2-1 1v1l2 3h2l1 2h1l2-1 1-1-6-9m5 36c-41 11-82 24-121 38l-1-1c40-15 81-27 122-38v1m10-8l2 9c1 1 0 2-1 3l-7 1c-1 1-2 0-2-1l-3-9c0-1 0-2 2-3l7-1 2 1zm-1 0h-3l-1 1 1 3h-2v1a174 174 0 0 0 2 4l1-1 1 3h3l1-2-3-9m-5 36c-42 2-84 5-126 10v-1c42-5 84-9 126-10v1m11-6v10l-2 2h-7l-2-1v-10l2-2h7l2 1zm-1 1l-1-1h-2l-1 1v2h-1l-1 1v3l1 1h1v2l1 1h2l1-1v-9m-14 33c-41-8-81-14-122-18v-1c41 4 82 10 122 18v1m12-3l-3 10c0 1-1 2-2 1l-7-1-1-2 2-10c1-1 2-2 3-1l6 1 2 2zm-1 0l-1-1h-2l-1 1-1 2h-1-1l-1 4 1 1h1l-1 2 1 1h3l3-10m-22 30c-36-17-73-32-111-45l1-1c37 13 74 28 111 45l-1 1m12 0l-5 9-2 1-6-3-1-3a387 387 0 0 1 7-9l6 3c1 0 2 1 1 2zm-1 0v-2h-2-1l-1 2h-2l-2 3v1l1 1-1 2v1l2 1 2-1 4-8m-29 22h-1c-30-24-61-46-92-67l1-1c32 21 62 44 92 68m8-2l-3 1v-1h3m-38 9l-1 1c-20-26-41-51-62-75l1-1 62 75m-24 7l-1 1-38-82 1-1 38 82m-22 7h-2l-15-88 1-1 16 89m-24 8h-1c2-32 4-64 8-96h1l-8 96m-29 10h-1c11-36 23-71 37-107l1 1c-14 35-26 70-37 106m-30-6c21-35 42-68 66-101l1 1c-23 32-45 66-65 100h-2m0 11l-9-4-1-3c0 1 0 0 0 0l3-5c1-1 2-2 3-1l9 4 1 3-3 6h-3zm0-1h2v-1-2l-2-1 1-1-1-1-3-1h-1l-1 1-2-1h-1l-1 2v1l9 5m-24-27c29-30 59-58 90-85l1 1c-31 27-61 55-90 84h-1m-3 11l-8-6v-3l5-5h3l7 6v3l-4 5h-3zm0-1h2l1-1v-2l-2-1 1-1v-1l-3-2h-1l-1 1-2-2h-1l-1 2v1l7 6m-16-32c35-22 72-44 109-63l1 1c-38 20-74 41-110 64v-2m-7 11l-5-8v-2-1l6-4 3 1 6 8-1 2-6 4h-3zm1-1l2 1 1-1 1-2-2-2h1v-1l-2-3h-2l-1-2h-2l-1 1-1 2 6 7m-7-35c40-15 81-27 122-38v1c-41 11-82 24-122 38v-1m-9 9l-4-9 1-2 7-3 3 1 3 9-1 3-7 2c-1 1-2 0-2-1zm0 0h4v-4h1v-1l-1-3-1-1-1 1-1-3h-1l-2 1-1 1 3 9m3-37c43-5 86-9 128-10v1c-42 2-85 5-128 10v-1m-11 7l-1-10 2-2 8-1 2 1v11l-2 2-7 1-2-2zm1 0l1 1 2-1 1-1v-2h1l1-1v-4h-2v-2l-1-1h-2l-2 1 1 10m14-36c42 4 83 11 125 19l-1 1c-41-8-83-14-125-19l1-1m-13 4l2-10c0-1 1-2 3-1h7l1 2a1502 1502 0 0 0-4 12l-8-1-1-1-1-1zm1 0v1l2 1 2-1v-3h2l1-4v-1h-1v-2-1h-1l-1-1-2 1-2 10m23-32c39 14 77 29 114 47l-1 1c-37-17-75-33-113-47v-1m-13 1l5-9c1-1 2-2 3-1l7 2 1 2-6 10-3 1-7-3-1-1 1-1zm1 0v2h4l1-3 1 1 1-1 2-3v-1h-1l1-3-1-1-2-1-1 1-5 9m32-27c32 23 64 48 94 73l-1 1c-30-25-62-50-94-73l1-1m-13-2l8-8h3l6 4v2l-8 9h-3l-6-4v-3zm1 1v1l1 1h2l2-2 1 1h1l3-3v-1l-1-1 2-2v-1l-2-1h-1l-8 8m39-19c23 30 45 61 67 93l-1 1c-22-32-44-63-67-93l1-1m-12-5l10-7 3 1 4 5v3h-1l-10 6h-3l-4-6 1-2zm1 0l-1 1v1l1 1h2l2-1 1 1h1l4-3v-1l2-2v-1l-1-2h-2l-9 6m155 170l-5 1c8-7 15-15 21-24 15-22 21-50 16-76-6-28-24-50-49-63-27-14-61-14-90-6-29 9-56 29-71 56a91 91 0 0 0-6 78c10 25 31 45 56 55 9 4 20 7 30 8l-4 2a111 111 0 0 1-85-64c-10-26-7-56 7-80a130 130 0 0 1 164-50c25 12 44 36 50 63s-1 55-16 78c-5 8-12 15-18 22"/><path fill="#a5a9a4" d="M869 454h-2l8-6c17-13 27-31 30-51 3-21-4-42-19-57a89 89 0 0 0-60-27c-22-1-45 6-62 21a71 71 0 0 0-25 54 77 77 0 0 0 32 61h-2l-7-6a79 79 0 0 1-24-55c-1-21 9-42 25-55 17-15 41-22 63-21 23 1 46 10 61 27 15 15 22 37 20 58a79 79 0 0 1-38 57m-20-2h-3c8-3 16-7 23-12 13-11 24-27 25-45 3-17-5-36-16-48a76 76 0 0 0-52-24c-19-1-40 5-54 18a62 62 0 0 0-22 47c1 17 8 35 21 47 6 6 13 11 21 14h-3a72 72 0 0 1-40-61c0-18 8-36 22-48 14-13 36-19 55-18 20 1 39 9 53 24 12 13 19 32 17 50s-13 34-26 45c-7 5-13 9-21 11m-26-67a5 5 0 0 1-2 9c-2 0-4-2-4-5s3-5 6-5m-1 4l2 2-2 1-2-2 2-1m5-76l-4 78h-1l4-78h1m-4-7h8l1 1v5l-1 1h-8l-2-2 1-4 1-1zm0 0l-1 1v1l1 1h2v1h4v-1h3v-1l-1-1-8-1m26 11l-26 74-1-1 26-73h1m-2-8l8 2 1 2-2 4-2 1-7-2-1-2 2-4 1-1zm0 1h-1v2l2 1v1h7v-1-1h-1l-7-2m22 16c-16 21-32 43-46 65l-1-1 46-65 1 1m1-8l6 4 1 1-3 4h-2l-7-3v-2l3-4h2zm0 0l-2 1v2l1 1v1l3 1 1-1 1 1h1l1-1v-1l-6-4m16 21c-22 16-43 34-63 52l-1-1c20-18 41-35 63-52l1 1m3-8l5 6v1l-4 3h-2l-5-5v-2l4-3h2zm-1 1h-1l-1 1v1l1 1v1l2 2 1-1 1 2h1l1-1 1-1h-1l-5-5m10 23c-26 11-51 23-76 36v-1c25-13 50-24 76-36v1m5-6l4 6-1 2-5 2-1-1-4-6 1-2 4-2 2 1zm0 0h-3v1l1 2h-1v1l1 2h1l1 1h2l1-1-3-6m2 25c-28 5-55 10-83 17v-1c27-7 55-12 83-17v1m7-5l1 6-1 2h-5-1l-2-7 1-2h5c1-1 2 0 2 1zm-1 0l-1-1h-1l-1 1 1 2h-1v3h2v2h2l1-1-2-6m-4 24l-85-2v-1l85 2v1m8-3l-1 7-1 1-5-1-1-1v-7l1-1h5l2 2zm-1 0l-1-1h-1l-1 1v1h-1v4h1v1l1 1h1l1-1v-6m-11 22l-81-21v-1c28 6 55 13 81 21v1m9-1l-3 6-1 1-5-1-1-2 2-6 2-1 5 1 1 2zm-1 0l-1-1-1-1-1 1v1h-1l-1 1v2c-1 0 0 0 0 0v2l1 1h2l2-6m-16 19c-24-14-48-27-73-39l1-1 72 39v1m8 0l-4 6h-2l-4-2v-2l4-5 1-1 4 3 1 1zm-1 0v-1l-1-1-1 1-1 1-1-1v1l-2 2h1v1l-1 1 1 1 1 1h1l3-6m-20 15l-60-54v-1l61 54-1 1m8 2l-5 5h-2l-3-3v-2l5-5h2l3 4v1zm-1 0v-1l-1-1-2 1h-1l-2 1v1l1 1-1 1v1h1l5-4m-23 8h-1l-43-64 1-1 43 65m5 0h-2 2m-26-2h-1l-22-63h1l22 63m-17-1h-1l-5-62h1l5 62m-16-1h-1l11-61 1 1-11 60m-17-1h-1l28-60 1 1-28 59m-20 0h-1l48-60 1 1c-17 19-33 39-48 59m-17-11l64-49v1l-64 48m-3 7l-5-5v-2l4-3h2l4 5v2l-4 3h-2zm0-1h2v-1l-1-1v-1h1l-2-2-1-1v1l-1-1h-2v1l4 5m-8-23l75-32v1l-75 32-1-1m-4 7l-4-6 1-2 4-2 2 1 3 6v1l-5 2h-1zm0-1l1 1 1-1 1-1-1-1 1-1-1-2-1-1-1 1v-2h-3v1l3 6m-2-24l82-14v1c-27 4-55 8-82 14v-1m-7 5l-1-6 1-2 4-1 2 1 2 6-1 2-5 1-2-1zm1 0h2l1-1-1-1h1v-3l-1-1-1 1v-2h-2-1l2 7m4-24c28 1 56 2 84 5v1c-28-3-56-4-84-5v-1m-8 3v-7l2-1h5l1 2v6l-2 2-5-1-1-1zm1 0l1 1h1l1-1v-1l1-1v-2l-1-1v-1l-1-1h-1l-1 1v6m11-22c27 7 54 15 80 24v1l-81-25h1m-9 1l2-6 2-1 4 1 1 1-2 7-1 1-5-1-1-2zm1 0v1h2l1-2 1 1v-1l1-2v-1h-1l1-1-1-1-1-1-1 1-2 6m16-19c25 13 49 27 73 42l-1 1-72-42v-1m-8-1l3-5 2-1 5 2v2l-4 6h-2l-4-2-1-2zm0 1v1h3l1-1h1l1-2v-1h-1l1-1v-1l-1-1h-1l-4 6m22-15l59 57-1 1c-19-20-38-39-58-57v-1m-8-3l5-5 2 1 4 3v2l-6 4h-2l-3-3-1-2h1zm0 1v1h2l1-1 1 1h1l2-2v-1h-1l2-1v-1l-1-1h-1l-6 5m26-10l41 69-1 1c-13-24-27-47-41-69l1-1m-7-4l6-3h2l3 4-1 2-7 3h-2l-2-4v-2zm0 1h-1l1 1v1h1l2-1v1h1l3-1v-1l-1-1h2v-1-1l-1-1-7 4m28-3l20 75-1 1-20-76h1m-6-6l7-2 2 1 1 4-1 2-7 1c-1 1-2 0-2-1l-1-4 1-1zm0 0l-1 1 1 1 1 1 1-1 1 1h3l1-1-1-1h2l1-1-1-1h-1l-7 1m58 145l-3-1a70 70 0 0 0 45-57c2-18-5-37-18-50a79 79 0 0 0-53-24c-20-1-41 5-56 18a64 64 0 0 0-23 49c1 18 8 36 22 49 5 5 11 9 17 12h-3c-6-3-11-7-15-12a70 70 0 0 1-22-49c-1-19 9-38 23-50 15-14 37-20 57-19 21 1 40 10 55 25 13 13 19 33 17 52-2 18-12 35-27 47l-16 10"/><path d="M269 408l13-2c8-18 25-49 5-65-3-5-11-10-23-7-3-2-8-1-12 1-3-1-7 0-8 3l-3 1-1 1c-4-1-7 0-9 3-4 1-8 4-9 8-11 6-14 15-13 21-3 25 31 36 49 43l11-7" class="st24"/><path d="M267 409l-4 3c-7-7-15-14-20-22-7-9-14-19-16-31 0-5 1-11 4-15v-1c2-3 5-4 8-3 3 27 14 47 28 69m-7 4l-2 2-27-18c-10-8-15-13-21-25v-1c-2-5 1-14 11-20-4 9-4 15 1 25 9 16 24 26 38 37m11-6l5-1v-29c-1-11-4-24-10-33-4-5-8-8-13-9h-1c-3-1-6 0-8 3 16 21 22 43 27 69m8-1h2c4-11 6-21 8-32 2-13 2-20-1-33h-1c-3-5-11-10-23-7 9 3 15 8 17 18 5 18 0 37-2 54" class="st17"/><path d="M269 408l13-2 10-25c-20-3-46 7-58 23 8 5 17 8 24 11l11-7" class="st29"/><path d="M267 409l-4 3-18-18 9-6 13 21m-7 4l-2 2-22-14 4-4 20 16m11-6l5-1v-25l-10 2 5 24m8-1h2c3-9 6-17 7-26h-6c0 9-2 18-3 26" class="st30"/><path d="M269 408l13-2 5-12c-15-1-30 6-41 16l12 5 11-7" class="st24"/><path d="M267 409l-4 3-9-8 7-4 6 9m-7 4l-2 2-10-6 3-3 9 7m11-6l5-1 1-12-8 2 2 11m8-1h2l4-12h-4l-2 12" class="st17"/><path d="M282 414v-9c-9-2-19 3-24 10l6 7c5-4 12-7 18-8" class="st24"/><path d="M272 416l10-2-8 5-10 3c-1-1 3-4 8-6" class="st31"/><path d="M226 483l10-3c6-15 17-40 0-53-2-4-9-8-18-5-3-1-7 0-10 1-3 0-5 1-7 4h-1l-2 1c-2-1-5 1-6 3-3 1-7 4-7 6-9 6-11 13-9 18-2 20 27 29 41 34l9-6" class="st24"/><path d="M224 484l-3 2c-6-5-11-9-17-17-6-7-12-16-14-25-1-4 0-9 2-13 1-2 4-4 6-3 4 22 14 38 26 56m-5 4l-1 1c-8-4-15-7-23-13-8-5-15-12-19-21-1-5 0-12 9-17-3 7-3 13 1 20 8 13 21 21 33 30m9-6h4l-2-25c-2-9-5-19-11-27-2-3-6-5-10-7l-1 1c-2-1-5 0-6 2 14 18 20 35 26 56m6-1h2c1-9 4-17 4-27 2-9 2-18-3-27-3-4-10-8-19-5 7 3 12 6 15 15 4 14 2 29 1 44" class="st17"/><path d="M226 483l10-3 7-20c-17-2-37 7-46 21l20 8 9-6" class="st29"/><path d="M224 484l-3 2-15-14 7-5 11 17m-5 4l-1 1-19-10 3-4 17 13m9-6h4l-2-21-8 2 5 19m7-1h2l4-21h-5l-1 21" class="st30"/><path d="M226 483l10-3 3-9c-12 0-23 5-31 15l9 3 9-6" class="st24"/><path d="M224 484l-3 2-7-6 5-4 5 8m-5 4l-1 1-9-5 2-2 8 6m9-6h4l-1-10-6 1 2 9m7-1h2l2-10h-4v10" class="st17"/><path d="M237 488l-1-8c-5-2-17 4-19 9l5 5 7-4 8-2" class="st24"/><path d="M229 490l8-2-7 4-8 2 7-4" class="st31"/><path fill="#91caa1" d="M1314 405l-5 1c-5 1-17-11 4-2l1 1"/><path d="M218 579c339-170 738-170 1077 0l-2 2a1197 1197 0 0 0-1074 0l-1-3" class="st33"/><path d="M232 479c15-7 36-1 43 14 7 16-3 35-18 41-14 6-35 2-43-13-7-16 3-35 18-42m5 58c5-3 12-1 15 4s-1 12-6 15-13 0-15-5 0-12 6-15" class="st34"/><path d="M267 555l-5 2-21-50 26 48zm-17-29l6-14-5 17-1-3zm-5-11l3-8-2 9-1-1zm2 4l-12-3 13 5-1-2zm13 29l-16-5 18 8-2-3zm-10-2l-6 4 8-4h-2zm-2-1l-2-4 3 4h-1z" class="st35"/><path d="M225 514s5-1 8 2c-4 2-7 0-8-2m3 9s1-5 6-6c0 4-4 5-6 6m10 18s3 1 3 4c-3 0-3-3-3-4m-3 5s3-2 6 0c-2 2-5 1-6 0" class="st36"/><path d="M504 391c16-4 35 7 38 24 2 16-11 33-26 35-16 3-35-6-38-22-4-17 10-33 26-37m-8 57c6-1 12 2 13 8s-3 12-9 13-12-2-13-8 2-12 9-13" class="st34"/><path d="M520 473l-5 1-9-53 14 52zm-9-32l9-12a584 584 0 0 0-9 12zm-3-12l5-7-5 9v-2zm1 4l-11-6 11 9v-3zm6 32l-14-9 15 12-1-3zm-9-5l-7 3 9-2-2-1zm-1-1l-1-4 2 5-1-1z" class="st35"/><path d="M489 424s5-1 7 3c-4 1-6-2-7-3m1 8s2-4 7-4c-1 4-5 4-7 4m6 20s2 3 2 5c-3-1-2-3-2-5m-4 5s3-1 5 1c-2 2-4 0-5-1" class="st36"/><path d="M363 428c16-5 36 3 41 19s-7 34-22 39c-15 4-35-3-41-18-5-16 7-35 22-40m-1 58c6-2 12 1 14 6s-2 12-8 14-12-1-14-7 2-11 7-13" class="st34"/><path d="M389 508l-5 1-15-52 20 51zm-13-31l7-14-6 17-1-3zm-4-12l4-7-3 9-1-2zm1 5l-11-5 12 7-1-2zm10 30a1171 1171 0 0 0 2 3l-2-3zm-9-3l-7 3 8-3h-1zm-2-1l-1-4 2 4-1-1z" class="st35"/><path d="M352 462s5-1 8 3c-4 2-7-1-8-3m2 9s2-5 7-5c-1 4-5 4-7 5m8 19s3 2 3 5c-3-1-3-4-3-5m-3 5s3-1 5 1c-2 1-4 0-5-1" class="st36"/><path d="M211 553l5-12-4 14-1-3zm-4-9l2-6-1 7-1-1zm2 3l-8-2v1l8 3v-2" class="st37"/><path d="M461 419c12-2 27 4 30 18 3 12-7 25-19 28-13 4-27-5-30-16-4-13 5-27 19-30" class="st38"/><path d="M456 464c5-1 9 2 10 7 1 4-2 8-7 9-4 1-8-1-9-6-2-4 1-9 6-10" class="st39"/><path d="M468 458l6-10-6 12v-2zm-3-9l4-5-3 6-1-1zm1 3l-8-4 9 6-1-2z" class="st37"/><path d="M450 445s4 0 6 2c-3 2-5-1-6-2m1 7s2-4 6-4c-1 3-4 4-6 4" class="st40"/><path d="M476 483l-4 1-8-42 12 41zm-4-6l-11-7 12 9-1-2zm-7-4l-6 3 7-2-1-1zm-1-1l-1-3 1 4v-1z" class="st37"/><path d="M457 467s2 2 1 4c-2-1-2-3-1-4" class="st40"/><path d="M468 485l-4 1-8-42 12 41zm-4-6l-11-7 12 9-1-2zm-7-4l-5 3 6-2-1-1zm-1-1l-1-3 1 4v-1z" class="st37"/><path d="M449 469s2 2 1 4c-2-1-2-3-1-4" class="st40"/><path d="M444 491l4-1-13-40 9 41zm0-7l7-11-6 14-1-3zm5-7h6l-7 1 1-1zm1-1l-1-3v4l1-1z" class="st37"/><path d="M454 468s-1 3 0 4c2-1 0-3 0-4" class="st40"/><path d="M451 489l4-1-12-36 8 37zm0-6l7-10-6 12-1-2zm5-6l5-1-6 2 1-1zm0-1l-1-3 1 3z" class="st37"/><path d="M460 469s-1 2 0 3v-3" class="st40"/><path d="M454 471s2-1 4 1c-2 1-4 0-5-1" class="st41"/><path d="M323 461c12-4 28 1 33 14 4 12-5 26-16 31-13 5-28-2-33-13-4-12 4-28 16-32m1 45a8 8 0 0 1 5 16c-4 1-9-1-10-5-2-4 0-9 5-11" class="st39"/><path d="M346 523l-4 1-13-40 17 39zm-11-24l5-11-4 13-1-2zm-3-9l2-6-2 7-1-1zm1 3l-9-3a302 302 0 0 1 9 3zm8 24l-12-5 13 7-1-2zm-7-3l-5 3 6-2-1-1zm-1 0l-2-4 2 4-1-1z" class="st37"/><path d="M316 488s4-1 6 2c-3 1-5-1-6-2m2 7s1-4 5-4c-1 3-4 3-5 4m7 14s2 2 2 4c-3 0-3-2-2-4" class="st40"/><path d="M322 514s3-2 4 0h-4" class="st41"/><path d="M288 486c11-4 24 0 28 10 4 11-2 23-13 27s-23 0-27-10c-5-11 2-23 12-27" class="st42"/><path d="M290 524c4-1 7 0 9 4a7 7 0 0 1-13 5c-2-4 0-8 4-9" class="st43"/><path d="M309 537l-3 1-12-34 15 33zm-10-20a378 378 0 0 1 1 2l-1-2zm-3-7l2-5-2 6v-1zm1 3l-8-3 9 4-1-1zm8 19l-10-4 11 6-1-2zm-7-2l-4 3 5-3h-1zm-1 0l-1-3 2 3h-1z" class="st44"/><path d="M283 509s3-1 5 1c-3 1-4-1-5-2m1 6s2-3 4-3c0 2-2 3-4 3" class="st45"/><path d="M291 526s2 1 1 3c-2 0-1-2-1-3" class="st46"/><path d="M289 530s2-1 3 0h-3" class="st45"/><path d="M556 411c11-2 23 5 24 16 2 11-7 21-18 23-10 2-22-5-24-16s7-22 18-24" class="st42"/><path d="M549 448c4-1 8 2 8 6s-2 7-6 8c-4 0-7-2-8-6 0-4 2-8 6-8" class="st43"/><path d="M565 465h-4l-4-35 8 35zm-5-22l6-8-6 10v-2zm-2-8l3-4-3 5v-1zm1 3l-7-4 7 6v-2zm3 21l-9-6 10 9-1-3zm-6-3l-4 2 5-1-1-1zm-1-1v-3l1 3h-1z" class="st44"/><path d="M546 431s3 0 4 3c-2 1-4-2-4-3m0 6s2-3 5-2c-1 2-4 2-5 2" class="st45"/><path d="M550 451s1 1 1 3c-2-1-2-3-1-3" class="st46"/><path d="M547 454s2-1 3 1c-1 1-3-1-3-1" class="st45"/><path d="M418 441c11-3 23 3 26 14s-5 22-15 25-23-3-26-13c-4-11 4-23 15-26" class="st42"/><path d="M415 479c4-1 8 2 9 5 1 4-2 8-6 9-3 0-7-2-8-5-1-4 1-8 5-9" class="st43"/><path d="M433 494l-4 1-8-35 12 34zm-8-20l5-9-4 11-1-2zm-2-8l3-5-3 6v-1zm1 3l-8-4 8 5v-1zm5 20l-10-5 11 7-1-2zm-6-2l-4 2 5-2h-1zm-1-1l-1-3 2 3h-1z" class="st44"/><path d="M410 463s3 0 5 2c-3 1-4-1-5-2m1 6s1-3 4-3c0 2-3 3-4 3" class="st45"/><path d="M416 482s2 1 1 3c-2-1-1-2-1-3" class="st46"/><path d="M413 485s3-1 4 1l-4-1" class="st45"/><path d="M299 507c-5 2-7 8-5 13s7 6 12 4 8-7 6-12-7-7-13-5" class="st47"/><path d="M313 512c-4 2-6 8-4 12 2 5 7 6 12 4 4-2 6-6 4-11-2-4-7-7-12-5" class="st48"/><path d="M309 537l3-1-10-22 7 23zm-4-14l-6-3 6 4v-1zm-2-5l-3-2 3 2zm1 2l2-5-2 6v-1zm5 13l3-7-2 8-1-1zm2-4l4-1-4 1zm1-1l-1-2v2z" class="st49"/><path d="M309 511s-2 1-2 3l2-3m1 3l-3 1c1 1 3 0 3-1" class="st50"/><path d="M313 523l1 2-1-2" class="st47"/><path d="M316 524l-2 2 2-2" class="st50"/><path d="M318 519s-3 2-3 5c3-1 3-4 3-5m3 5s-3-1-5 0c1 2 4 1 5 0" class="st45"/><path d="M562 434c-5 1-8 6-7 11a9 9 0 0 0 18-3c-1-6-6-9-11-8" class="st47"/><path d="M574 442a9 9 0 1 0 11 7c-1-5-6-8-11-7" class="st48"/><path d="M565 465l3-1-5-23 2 24zm-1-15l-5-4 5 5v-1zm-1-5l-3-2 3 2zm1 2l3-5-3 6-1-1zm2 14l4-6-4 7v-1zm3-4h3l-4 1 1-1zm0 0v-2 2z" class="st49"/><path d="M570 440s-2 0-2 2l2-2m1 3h-3 3" class="st50"/><path d="M572 453v0" class="st47"/><path d="M574 454l-2 1 2-1" class="st50"/><path d="M578 450s-4 1-4 3c3 0 3-2 3-3m2 5s-3-2-5-1c1 2 4 2 5 1" class="st45"/><path d="M426 464c-5 1-8 7-7 11 2 5 8 8 13 6 5-1 7-6 6-11s-6-8-12-6" class="st47"/><path d="M440 470a9 9 0 0 0 5 17c5-1 7-6 6-10-2-5-7-8-11-7" class="st48"/><path d="M433 494l3-1-8-22 5 23zm-3-14l-6-3 7 4-1-1zm-1-5l-3-2 3 2v-1zm0 1l3-4-2 5-1-1zm4 14l4-6-3 8-1-2zm3-4h3l-4 1 1-1zm0 0v-2 2z" class="st49"/><path d="M435 469s-2 0-2 2l2-2m2 3h-4 3" class="st50"/><path d="M438 481l1 2-1-2" class="st47"/><path d="M441 482l-2 2 2-2" class="st50"/><path d="M444 478s-3 1-4 4c3-1 4-3 4-4m2 5s-3-2-5 0c1 2 4 1 5 0" class="st45"/><path d="M211 532c-7 3-10 11-7 17s11 8 17 5c7-3 10-11 7-17s-11-8-17-5" class="st46"/><path d="M231 572l3-2-19-34 15 36zm-9-22l-11-3 12 5-1-2zm-4-8l-6-2 6 3v-1zm1 3l4-9-3 10-1-1z" class="st44"/><path d="M225 537s-4 2-3 5c3-1 3-4 3-5m3 5s-3-1-6 1c2 2 5 0 6-1" class="st45"/><path d="M234 547a8 8 0 1 0 10 3c-2-4-6-5-10-3" class="st43"/><path d="M230 566l4-12-3 14-1-3zm3-7l5-2-6 3 1-1zm0-2l-1-2 1 3v-1z" class="st44"/><path d="M235 550s0 2 2 3c1-2-1-3-2-3m5 1s-2 1-3 3l3-3m232-113c-8 1-12 8-10 15s8 10 15 8c7-1 12-8 10-14-1-7-8-11-15-9" class="st46"/><path d="M482 482l4-1-11-38 7 39zm-4-24l-9-6 10 8-1-3zm-2-9l-5-3 6 4-1-1zm1 3l5-7-5 9v-2z" class="st44"/><path d="M484 446s-4 1-4 4c3 0 4-3 4-5m2 7s-3-2-6-1c2 2 5 1 6 1" class="st45"/><path d="M490 458c-4 1-6 5-5 9s5 7 10 5c3-1 6-5 5-9s-5-6-10-5" class="st43"/><path d="M483 475l6-10-6 12v-2zm4-6l5-1-5 2v-1zm1-1l-1-3v3h1z" class="st44"/><path d="M492 461s-1 2 0 3c1-1 0-3-1-3m5 2s-3 0-4 2l4-2m-160 15c-7 3-10 10-8 16s10 10 17 7 10-9 8-16-10-9-17-7" class="st46"/><path d="M352 520l3-1-14-36 11 37zm-7-23l-10-4 11 6-1-2zm-3-8l-5-2 6 3-1-1zm2 3l4-8-4 10v-2z" class="st44"/><path d="M350 485s-4 1-4 4c3 0 4-3 4-4m2 5s-3-1-6 0c2 2 5 1 6 0" class="st45"/><path d="M358 496c-4 1-6 6-5 10 2 4 6 6 10 4s6-6 5-10c-2-4-6-6-10-4" class="st43"/><path d="M352 514l5-11-5 13v-2zm4-7l5-1-6 2 1-1zm0-1l-1-3 1 4v-1z" class="st44"/><path d="M359 499s-1 2 1 3c1-1 0-3-1-4m4 2s-2 1-3 3c2 0 3-2 3-3m-123-12c11-4 24-1 28 9 4 11-2 22-12 27s-22 1-27-9 1-22 11-27" class="st46"/><path d="M270 554l-6 2-23-58 29 56zm-19-34l7-16-6 19-1-3zm-6-13l4-8-3 10-1-2zm2 5l-14-4 15 7-1-3z" class="st44"/><path d="M232 510s6-1 9 2c-4 3-8 0-9-2m3 10s2-6 7-7c0 5-5 6-7 7" class="st45"/><path d="M235 532c7-3 15 0 18 6s-1 13-7 16-14 1-17-5 0-14 6-17" class="st43"/><path d="M262 546l-18-6 20 9-2-3zm-11-3l-8 5 9-5h-1zm-2-1l-2-4 3 4h-1z" class="st44"/><path d="M237 537s3 2 3 5c-3 0-3-4-3-5m-4 6s4-2 7 0c-2 3-5 1-7 0m276-141c11-2 23 4 25 15s-6 21-17 23c-10 2-22-4-24-15-3-11 6-21 16-23" class="st46"/><path d="M524 472l-7 2-9-62 15 60zm-11-37l10-14-10 18v-4zm-3-14l5-7-5 9v-2zm1 6l-13-8 13 10v-2z" class="st44"/><path d="M497 422s6-1 8 3c-5 2-7-2-8-3m1 10s3-5 8-5c-1 4-6 5-8 5" class="st45"/><path d="M495 444c7-2 14 2 15 9s-3 13-10 15-13-3-15-10 3-13 10-15" class="st43"/><path d="M518 463l-17-10 18 14-1-4zm-10-5l-8 3 9-3h-2zm-2-2l-1-5 2 6-1-1z" class="st44"/><path d="M496 449s3 2 2 5c-3-1-3-4-2-6m-5 6s4-1 6 1c-3 2-5 0-6-1m-121-16c11-3 23 2 26 12 4 11-3 22-14 25s-22-1-26-12c-4-10 4-21 14-25" class="st46"/><path d="M392 507l-6 2-17-61 23 59zm-15-36l9-15-8 18-1-3zm-4-13l5-8-5 9v-1zm1 5l-13-6 14 8-1-3z" class="st44"/><path d="M360 459s6-1 9 3c-5 2-8-1-9-3m2 10s2-5 7-6c0 5-5 6-7 6" class="st45"/><path d="M361 481c7-2 14 1 16 8s-2 13-8 15-14-1-17-7 2-13 9-16" class="st43"/><path d="M386 498l-18-8 19 12-1-4zm-11-4l-8 4 9-4h-1zm-2-1l-2-5 3 5-1-1z" class="st44"/><path d="M362 486s3 2 2 6c-3-1-3-4-2-6m-4 6s3-1 6 1c-3 2-5 0-6-1" class="st46"/><path d="M386 451c8-2 17 2 20 10s-3 16-11 19-17-2-20-10 2-16 11-19" class="st51"/><path d="M402 503l-4 2-13-46 17 44zm-11-27l7-11a540 540 0 0 0-7 11zm-3-10l3-6-3 8v-2zm1 4l-10-5 11 7-1-2z" class="st52"/><path d="M378 467s4-1 7 2c-4 2-6 0-7-2m2 8s1-4 5-4c0 3-4 4-6 4" class="st53"/><path d="M379 484c5-2 10 1 12 6 1 5-2 10-7 12-5 1-10-2-12-6-2-5 1-10 6-12" class="st43"/><path d="M397 497l-13-7 15 10-2-3zm-8-3l-6 2 7-2h-1zm-1-1l-2-4 2 4z" class="st44"/><path d="M379 488s3 1 2 4c-2-1-2-3-2-4m-3 4s3-1 5 1c-2 1-4 0-5-1" class="st46"/><path d="M222 507l7-3v1l2 8-6 3-4-6-1-2 2-1" class="st54"/><path d="M222 507l6-3 1 2 1 7-4 2-5-6-1-1 2-1" class="st55"/><path d="M223 506l3-1v2l3 7h-2l-4-6v-2" class="st17"/><path d="M221 504h1v-1h-2 1l-1-1h2l-1-3h-1 1l-1-1v-1l1 1v1l1-1v1h-1l2 2h1l-1 1 1 1 1-1 2 1h1l1 1-10 4v-1h1v-1l1-2zm21 47v-1h-2l1-1 1-1h-1l2-1-1-1h-1v-1l-11-24h1l-1-3-2 1v-1l1-1h-1v-1-1l-2 1v-1h1v-1l3-1v1l1-1v1-1 1l-2 1h1v2l1-1v1h1l-1 1 1 2 11 24h1v1l1 1h3l-1 1 1 1 2-1v1l-1 1 6 12-8 3-5-12-1 1-1-1 2-1m245-135l8-1v9l-6 1a472 472 0 0 1-4-8l2-1" class="st54"/><path d="M488 416l6-1 1 1-1 8-5 1-3-7v-1l1-1" class="st55"/><path d="M489 416l3-1v2l1 7-2 1-2-7v-2" class="st17"/><path d="M487 413h1v-1h-1v-1h2l-1-3v-1-1 1l1 1 1 3h1l-1 1h2l2 1v1h1v1l-10 2v-1h1-1l1-1 1-2zm11 50l-1-1h-1v-1h1v-1h2l-1-1-1-1 1-1-6-25 1-1-1-2h-2l1-1h1v-1h-1v-1h1l-1-1-2 1h1v-2h5v1h-2v1h1l-1 1h1v1h1-2l1 3 6 26h1l-1 1 1 1h2v1h1-1v2l2-1v1l-1 1 3 12-8 2-2-13-1 1-1-1 3-1m-148-8l7-3v2l1 8-5 2-5-7v-2h2" class="st54"/><path d="M350 455l7-2v1l1 8-5 1-4-6-1-2h2" class="st55"/><path d="M352 454h2v1l2 7-2 1-3-7v-2" class="st17"/><path d="M349 452h1v-1h-1v-1h1v-3h-1 1v-1l-1-1 1 1v1h1-1l1 3 2-1v1h-1l1 1h1c1-1 2 0 2 1h1v1l-9 3v-2l1-2zm16 49v-2h-1v-1h1v-1h1v-1h-1v-1l-8-25v-1l-1-2-2 1v-1h1v-1h1v-1l-1 1v-2l-2 1v-1h1v-1l3-1h1v1-1 1h-2v1h1v2l1-1v1h1l-2 1 1 2 9 25h1l-1 1 1 1h1v1l1-1v1h1l-1 1v1l2-1 1 1-1 1 4 12-8 3-4-13-1 1v-1l2-1" class="st54"/><path d="M260 558l-6-14h-1l3 6 2 7 2 1" class="st56"/><path d="M254 554l21-9 1 2-21 9-1-2" class="st57"/><path d="M254 552l20-9 1 2-20 9-1-2" class="st58"/><path d="M255 548l18-8 1 2-18 8-1-2" class="st59"/><path d="M254 546l18-8 1 2-18 8-1-2" class="st60"/><path d="M253 544l18-8 1 2-18 7-1-1" class="st57"/><path d="M253 543h1v1h-1v-1m1 0v1l1 3 1 2 1 1c-2 5-1 6 4 8l-3 1c-2-1-5-4-4-7l1-1c1-3-6-6-2-8h1m3 15l1 1-2 1 1-2" class="st61"/><path d="M257 559h1l-2 1 1-1" class="st62"/><path d="M254 554c-1-1-2-3-1-4l1-3 1 2 1 1c-2-1-3 1-2 2h1l-1 2m0-3h1v1h-1v-1m5 6v2l2-1-2-1" class="st61"/><path d="M260 557l-1 1h2l-1-1" class="st62"/><path d="M294 543l-6-14 1-1 2 6 4 7-1 2" class="st63"/><path d="M296 536l-21 9 1 2 20-9v-2" class="st64"/><path d="M294 534l-20 9 1 2 20-9-1-2" class="st65"/><path d="M291 533l-18 7 1 2 17-7v-2" class="st66"/><path d="M290 530l-18 8 1 2 18-8-1-2" class="st67"/><path d="M288 528l-17 8 1 2 17-8-1-2" class="st64"/><path d="M288 527l-1 1 1 1 1-1-1-1m0 1v1l1 3 1 1 1 2c5 2 5 4 3 8l3-1c0-3 0-7-2-8h-2c-3-1-1-8-5-7v1m9 13l-1 1 2-1h-1" class="st68"/><path d="M297 541v1l1-1h-1" class="st69"/><path d="M296 536c0-1-1-4-3-4-2-1-1 1-2-1v2l1 1c0-2 2-1 2 0v1l2 1m-3-2l-1 1 2 1v-2l-1-1m1 9h2l-2 1v-1" class="st68"/><path d="M294 542l1 1h-1v-1" class="st69"/><path d="M514 474l-4-15v1a631 631 0 0 1 4 14" class="st56"/><path d="M509 470l21-5 1 2-22 4v-2" class="st57"/><path d="M509 467l21-4v2l-21 4v-2" class="st58"/><path d="M511 464l18-4 1 2-19 4v-2" class="st59"/><path d="M510 461l19-3v1l-19 4v-2" class="st60"/><path d="M510 459l18-4 1 2-19 4v-2" class="st57"/><path d="M510 458h1l-1 1h-1l1-1m1 0l-1 1 1 3v2l1 2c-3 4-2 6 2 8l-4 1c-1-2-3-5-2-8l2-1c2-2-4-7 0-8m0 16l1 1h-2l1-1" class="st61"/><path d="M510 474l1 1h-2l1-1" class="st62"/><path d="M508 470v-5c1-2 2 0 1-3l1 2 1 2c-2-2-3 0-2 1l1 1-2 1m1-3l1 1v1l-2-1 1-1m4 7l-1 2 2-1-1-1" class="st61"/><path d="M513 474l-1 1 2-1h-1" class="st62"/><path d="M549 467l-2-15h1l1 7 2 7-2 1" class="st63"/><path d="M552 461l-22 4 1 2a825 825 0 0 1 21-6" class="st64"/><path d="M551 459l-21 4v2l21-4v-2" class="st65"/><path d="M548 457l-19 3 1 2 18-3v-2" class="st66"/><path d="M548 454l-19 4v2l19-4v-2" class="st67"/><path d="M547 452l-19 3 1 2 18-3v-2" class="st64"/><path d="M547 451l-1 1h1v-1h-1m0 0l1 1v3l1 2v2c4 2 4 5 1 8h3c1-2 2-6 0-8l-2-1c-3-1 1-8-3-7h-1m6 15l-1 1h3l-2-1" class="st68"/><path d="M553 466l-1 1h2l-1-1" class="st69"/><path d="M552 461c0-1 1-4-1-5s-2 1-2-1v3c0-2 2 0 2 1l-1 1 2 1m-1-3l-2 1 1 1 1-1v-1m-1 8l1 1-2 1 1-2" class="st68"/><path d="M550 467h1l-2 1v-1" class="st69"/><path d="M383 510l-5-15h-1l2 7 1 7 3 1" class="st56"/><path d="M377 505l21-7 1 2-21 7-1-2" class="st24"/><path d="M377 503l20-7 1 2-20 7-1-2m2-3l18-6v2l-18 6v-2m-1-3l18-6 1 2-19 6v-2" class="st70"/><path d="M377 495l18-6 1 2-18 6-1-2" class="st24"/><path d="M377 494h1v1h-1v-1m1 0l-1 1 2 3v2l1 1c-3 5-2 7 3 9l-3 1c-2-2-4-5-3-8l1-1c2-2-5-7-1-8h1m1 16h1l-2 1 1-1" class="st61"/><path d="M379 510l1 1h-2l1-1" class="st62"/><path d="M377 506c-1-2-2-4-1-5 1-2 2 0 1-3l1 2 1 1c-2-1-3 1-2 2h1l-1 2m0-3h1v2l-1-1v-1m5 7l-1 1 2-1h-1" class="st61"/><path d="M382 509v1h1l-1-1" class="st62"/><path d="M417 499l-4-15h1l2 6 3 7-2 2" class="st63"/><path d="M420 492l-22 7 1 2 21-7v-2" class="st24"/><path d="M418 490l-21 6 1 2 21-6-1-2m-3-2l-18 6v2l19-6-1-2m0-2l-19 5 1 2 18-6v-1" class="st70"/><path d="M413 483l-18 6 1 2a541 541 0 0 1 17-8" class="st24"/><path d="M413 483l-1 1h1l1-1h-1m0 0v1l1 3 1 2v1c5 2 5 5 2 9l4-1c0-3 0-7-2-8h-2c-3-1 0-9-4-8l-1 1m8 14v1l2-1h-2" class="st68"/><path d="M421 497l-1 1 2-1h-1" class="st69"/><path d="M420 492c0-2 0-4-2-5-2 0-2 1-2-1v4c0-3 2-2 2 0v1l2 1m-2-3l-1 1 1 1 1-1-1-1m0 8l1 1-2 1 1-2" class="st68"/><path d="M418 498h1l-2 1 1-1" class="st69"/><path d="M584 422l17-2v3l-16 2-1-3" class="st71"/><path d="M584 424l18-3 4 38-17 2-5-37" class="st24"/><path d="M585 425l15-2 5 35-15 2-5-35" class="st70"/><path d="M587 427l12-2 4 31-12 2-4-31" class="st2"/><path d="M584 423l18-2-1-3c-4-3-13-2-18 2l1 3" class="st70"/><path d="M601 444l-3 1 1 5h2v-6zm-10-17h-3l1 6 3-1-1-5zm4 0h-3v5h3v-5zm3-1h-3l1 6 3-1-1-5zm1 6h-3l1 6 3-1-1-5zm-4 1h-3l1 5h3l-1-5zm5 5h-3l1 6 3-1-1-5zm-4 1h-3l1 5h3l-1-5zm-3 0h-3l1 6 2-1v-5zm4 6h-3l1 5h3l-1-5zm4 5l-2 1v5h3l-1-6zm-3 1h-3l1 6 3-1-1-5zm-4 0l-3 1 1 5 3-1-1-5zm-2-18h-3l1 6 2-1v-5zm1 12h-2v6l3-1-1-5" class="st72"/><path d="M605 419l16-2 1 3-17 2v-3" class="st71"/><path d="M604 421l18-2 4 37-17 2-5-37" class="st24"/><path d="M606 422l15-2 4 36-15 1-4-35" class="st70"/><path d="M608 424l12-1 3 31-11 1-4-31" class="st2"/><path d="M604 420l18-2v-3c-4-2-13-2-18 2v3" class="st70"/><path d="M621 442h-3l1 5h3l-1-5zm-9-18l-3 1v5h3v-6zm3 0h-3l1 6 3-1-1-5zm4 0h-3l1 5h3l-1-5zm1 6h-3v5h3v-5zm-4 0h-3l1 6 3-1-1-5zm4 6h-3l1 5h3l-1-5zm-3 0h-3l1 6h2v-6zm-4 0l-3 1 1 5h3l-1-6zm4 6h-2v6h3l-1-6zm5 6h-3v6l3-1v-5zm-4 0h-3l1 6h3l-1-6zm-4 0l-2 1v5h3l-1-6zm-2-18l-3 1 1 5h3l-1-6zm2 12l-3 1 1 5h2v-6" class="st72"/><path d="M685 368c-16 1-32 15-31 32 2 17 19 29 35 28 16 0 31-15 30-31 0-17-17-31-34-29m22 53c-6 0-11 5-10 11 0 6 6 11 12 10 5 0 10-5 10-11s-6-10-12-10" class="st34"/><path d="M690 451h5l-5-54v54zm1-33a548 548 0 0 0 0 3v-3zm-1-12l-6-5 6 6v-1zm1 4l8-9-8 12v-3zm1 32l12-12-12 16v-4zm8-7l7 1h-8l1-1zm1-1v-4l-1 5 1-1z" class="st35"/><path d="M707 396s-5 1-6 5c4 0 6-4 6-5m2 8s-4-3-8-2c2 3 6 3 8 2m-1 21s-2 3-1 5c3-1 2-4 1-5m5 4s-3 0-5 2c3 1 4-1 5-2" class="st36"/><path d="M829 368c-16-1-33 12-34 29 0 16 15 30 31 31s33-11 34-28c1-16-14-32-31-32m16 55c-6 0-11 5-11 11s5 10 11 10c5 0 10-4 11-9 0-6-5-12-11-12" class="st34"/><path d="M824 451h6l1-54-7 54zm5-33l-11-11 11 14v-3zm1-12l-6-6 6 8v-2zm0 5l9-8-9 10v-2zm-2 32l13-11-14 14 1-3zm8-6l7 1-8-1h1zm1-2l1-4-1 5v-1z" class="st35"/><path d="M848 398s-5 0-7 4c5 1 6-2 7-4m0 9s-3-4-7-4c1 4 5 4 7 4m-3 20s-2 3-1 5c3-1 2-3 1-5m5 5s-4-1-5 1c2 2 4 0 5-1" class="st36"/><path d="M733 384c-13 0-25 12-24 25 0 12 12 23 25 22 13 0 25-10 25-23 0-14-13-24-26-24" class="st38"/><path d="M749 426c-4 0-8 4-8 9s4 8 9 8c4 0 8-4 8-8 0-5-4-9-9-9" class="st39"/><path d="M736 423l-9-8 9 11v-3zm0-9l-4-4 4 5v-1zm0 3l7-6-7 8v-2z" class="st37"/><path d="M750 406s-4 1-5 4c3 1 4-2 5-4m1 7s-3-3-6-2c1 3 4 3 6 2" class="st40"/><path d="M735 450l4-1-3-42-1 43zm2-7l9-10-9 12v-3zm6-6l6 1h-7l1-1zm1-1v-3l-1 4 1-1z" class="st37"/><path d="M750 430s-2 2-1 4c2-2 1-3 1-4" class="st40"/><path d="M743 449h4l-2-42-2 42zm2-7l9-9-9 12v-3zm6-5l6 1h-7l1-1zm1-1v-3l-1 4 1-1z" class="st37"/><path d="M758 430s-2 2-1 4c2-2 1-4 1-4" class="st40"/><path d="M768 449h-5l2-42 3 42zm-3-7l-9-9 9 12v-3zm-6-5l-6 1h7l-1-1zm-1-1v-3l1 4-1-1z" class="st37"/><path d="M752 430s2 2 1 4c-2-2-1-4-1-4" class="st40"/><path d="M761 449h-4l1-38 2 38zm-3-6l-8-8 8 10v-2zm-5-4h-5 6-1zm-1-1v-3 3z" class="st37"/><path d="M747 432s1 2 0 3v-3" class="st40"/><path d="M753 433s-2-1-4 1c3 1 4-1 4-1" class="st41"/><path d="M875 390c-13-2-26 9-27 21s10 25 23 26h1l5-47h-2" class="st39"/><path d="M869 455h2l2-24-4 24zm4-27l-7-8 7 10v-2zm1-10l-3-3 3 4v-1z" class="st37"/><path d="M639 400c-11 1-20 10-19 22 1 11 12 18 23 17s20-10 19-21c-1-12-11-19-23-18" class="st42"/><path d="M655 434a7 7 0 1 0 2 14c4-1 6-4 6-8s-4-6-8-6" class="st43"/><path d="M645 455l3-1-5-35 2 36zm-1-23l-8-6 8 8v-2zm0-8l-5-3 5 4v-1zm0 3l5-6-5 8v-2zm2 22l7-9-7 11v-2zm5-5h5-6 1zm0-1v-3 3z" class="st44"/><path d="M655 417s-4 1-4 4c2 0 3-2 4-4m1 6s-3-2-6-1c2 2 4 1 6 1" class="st45"/><path d="M656 437s-1 2 0 3v-3" class="st46"/><path d="M659 439s-2 0-3 2c2 0 3-1 3-2" class="st45"/><path d="M780 394c-11 0-21 9-21 20s9 20 20 20 21-8 22-19c0-11-10-20-21-21" class="st42"/><path d="M792 430c-4 0-7 4-7 7s3 7 7 7 7-3 7-6c0-4-3-8-7-8" class="st43"/><path d="M779 450h4l-1-36-3 36zm2-23l-7-7 7 10v-3zm1-8l-4-3 4 4v-1zm0 3l6-5-7 7v-2zm-1 22l8-8-8 10v-2zm6-4h4-5zm0-1v-3 3z" class="st44"/><path d="M793 414s-3 0-4 3c3 0 4-2 4-3m1 5s-3-2-5-2c1 3 3 3 5 2" class="st45"/><path d="M792 433s-1 2 0 4v-4" class="st46"/><path d="M795 436s-2 0-3 1c2 1 3-1 3-1" class="st45"/><path d="M630 435c5 0 9 3 9 8s-3 9-8 9c-5 1-9-3-10-7 0-5 4-10 9-10" class="st48"/><path d="M641 437l-4-4 4 5v-1zm2 14l-6-5 6 6v-1zm-4-3l-3 1h3v-1zm-1 0v-2l1 2h-1z" class="st49"/><path d="M633 431s2 0 3 2c-1 0-2 0-3-2m0 4l3-1c0 2-2 1-3 1" class="st50"/><path d="M635 444v3-3" class="st47"/><path d="M633 446l2 1-2-1" class="st50"/><path d="M628 443s4 0 5 3c-3 0-4-2-5-3m1 6s1-3 4-2c-1 2-3 2-5 2" class="st45"/><path d="M778 419a9 9 0 1 1-2 18c-5 0-8-4-8-9 0-6 4-10 10-9" class="st47"/><path d="M767 428c4 0 8 5 8 9a9 9 0 0 1-18 0c0-5 4-9 9-9" class="st48"/><path d="M779 450h-3l2-24 1 24zm-1-15l5-5-5 6v-1zm0-6l2-2-2 3v-1zm0 2l-4-3 4 4v-1zm0 15l-6-6 6 7v-1zm-4-3h-3 4-1zm0-1v-2 2z" class="st49"/><path d="M770 425s3 1 3 2c-2 1-3-1-3-2m0 4l3-1-3 1" class="st50"/><path d="M770 438l1 2-1-2" class="st47"/><path d="M768 440l2 1-2-1" class="st50"/><path d="M764 436s4 1 4 3c-2 1-3-2-4-3m0 6s2-2 5-2c-1 3-4 2-5 2" class="st45"/><path d="M728 405c7-1 13 5 13 12 0 6-6 12-13 12s-13-5-13-12 5-12 13-12" class="st46"/><path d="M729 450h-4v-39l4 39zm-3-24l8-8-8 10v-3zm0-9l4-4-4 5v-1zm0 3l-7-6 7 8v-2z" class="st44"/><path d="M718 415s4 1 4 4c-2 0-4-2-4-4m-1 7s3-3 6-2c-1 2-4 2-6 2" class="st45"/><path d="M715 429c4 0 7 3 7 7 0 5-3 8-8 8-4 0-7-3-7-7 0-5 3-8 8-8" class="st43"/><path d="M726 443l-9-8 10 11-1-3zm-5-4l-6 1 6-1zm-1-1v-3 3z" class="st44"/><path d="M714 432s2 2 1 4c-2-1-1-3-1-4m-3 3s2-1 3 1c-2 1-3-1-3-1m156-26l8 3-2 20-8 2c-7-1-12-7-12-14 1-6 7-11 14-11" class="st46"/><path d="M863 454h-4l5-39-1 39zm0-24a499 499 0 0 1 0 2v-2zm1-9l5-3-5 4v-1zm0 3l-6-6 6 8v-2z" class="st44"/><path d="M856 419s4 1 5 4c-3 0-4-3-5-4m-1 6s3-2 6-1c-2 2-5 2-6 1" class="st45"/><path d="M851 432c5 0 8 4 7 8 0 5-4 8-8 7-5 0-7-4-7-8s4-8 8-7" class="st43"/><path d="M862 448l-8-9 8 11v-2zm-6-5h-5 6l-1-1zm0-2v-3 4-1z" class="st44"/><path d="M851 435s1 2 0 4c-2-2-1-3 0-4m-4 2s3 0 3 2c-2 1-3-1-3-2m-165-57c-11 0-20 9-20 21 1 10 12 18 23 18s20-10 19-21c0-11-11-19-22-18" class="st46"/><path d="M686 451h7l-7-62v62zm1-38l-13-11 14 14-1-3zm0-14l-8-6 8 8-1-2zm0 5l10-10-10 13v-3z" class="st44"/><path d="M699 395s-6 2-7 6c5 1 7-4 7-6m2 11s-4-5-9-3c2 4 7 3 9 2" class="st45"/><path d="M706 416c-7 1-12 6-12 13s6 12 13 12 13-6 13-13-6-12-14-12" class="st43"/><path d="M689 441l14-14-14 18v-4zm9-8l9 1h-10l1-1zm1-2v-5l-1 6 1-1z" class="st44"/><path d="M707 421s-2 3 0 6c2-2 1-5 0-6m6 4s-4 0-6 3c3 1 5-1 6-3m112-46c-11 0-22 8-22 19-1 11 9 20 20 20 11 1 21-7 22-18s-9-20-20-21" class="st46"/><path d="M821 451l6 1 1-63-7 62zm5-38l-12-13 12 16v-3zm1-14l-6-7 6 9v-2zm0 5l11-9-11 12v-3z" class="st44"/><path d="M840 397s-6 0-8 5c5 1 7-3 8-5m1 10s-4-4-9-3c1 4 6 4 9 3" class="st45"/><path d="M845 419c-7-1-14 4-14 11s5 12 12 13 13-4 14-11c0-7-5-13-12-13" class="st43"/><path d="M825 441l15-12a1194 1194 0 0 0-15 12zm10-7l8 2-10-1 2-1zm1-1v-5l-1 5h1z" class="st44"/><path d="M845 424s-2 3-1 6c3-2 2-5 1-6m5 4s-4 0-6 2c3 2 5 0 6-2" class="st46"/><path d="M813 396c-9 0-16 6-16 14-1 8 6 15 15 16 8 0 16-6 16-14 1-8-6-16-15-16" class="st51"/><path d="M811 451h4l1-48-5 48zm3-30l-9-9 9 12v-3zm1-10l-5-5 5 6v-1zm0 4l8-7-8 9v-2z" class="st52"/><path d="M825 409s-5 1-6 4c4 1 5-2 6-4m0 8s-3-3-6-2c1 3 4 2 6 2" class="st53"/><path d="M828 426c-5 0-9 4-9 9s4 9 9 9 9-4 10-8c0-6-4-10-10-10" class="st43"/><path d="M814 443l11-10-12 13 1-3zm7-5l6 1-7-1h1zm1-2v-3l-1 4 1-1z" class="st44"/><path d="M829 429s-2 3-1 5c2-1 1-4 1-5m4 4s-3 0-5 2c3 1 4-1 5-2" class="st46"/><path d="M707 388h-7v2l2 7h5l2-7v-2h-2" class="st54"/><path d="M707 388h-7v2l2 7h5l2-7v-2h-2" class="st55"/><path d="M705 388h-2v2l1 7h2v-9h-1" class="st17"/><path d="M706 385h-1v-1h1v-1h-2v-3h1-1v-1 1h-1 1v3h-2v1h1v1h-1l-2 2v1h-1v1l10-1v-1h-1v-1l-2-1zm3 51v-1h1v-1h-1v-1h-2v-1l1-1-1-1-1-26-1-2 2-1h-1v-1h-1l1-1h-1v-1h2v-1h-5v1h2v1h-1l1 1h-1v1h-1 2v3l1 26-1 1 1 1v1h-2v1h-1 1v2h-2v1h1l1 13h7v-13h1v-1h-2m140-46h-8v2l1 7 6 1 3-8v-1l-2-1" class="st54"/><path d="M848 390h-7v1l1 8h6l2-7v-2h-2" class="st55"/><path d="M847 390h-3v9h2l1-7v-2" class="st17"/><path d="M848 387h-1v-1h1-2v-3h1v-1h-1v-1 1h-1v1h1v3l-2-1v1h1v1h-1l-2 2h-1v2h10v-1h-1v-1l-2-1v-1zm-3 52v-2h1v-1h-1v-1h-1v-1l1-1-1-1 2-26h-1v-2h2v-1h-2v-1h1v-1c0-1 0 0 0 0h-1v-1h2-1l1-1h-4v1h-1 2v1h-1l1 1v1h-2v1h2v2h-1l-2 26v3h-1v1h-1v1h1l-1 1h-2v1h1l-1 13 8 1 1-13h1v-1h-2" class="st54"/><path d="M696 451v-16h1v7l1 7-2 2" class="st56"/><path d="M700 445l-22 1v2l22-1v-2" class="st57"/><path d="M699 442l-21 2v2l21-2v-2" class="st58"/><path d="M696 440l-18 1v2l19-1-1-2" class="st59"/><path d="M697 437a1156 1156 0 0 0 0 2v-2" class="st60"/><path d="M696 435l-19 1v2l19-1v-2" class="st57"/><path d="M696 434l-1 1h2l-1-1m-1 0l1 1v7c4 3 4 5 0 9l4-1c1-2 2-5 0-7l-2-1c-2-2 2-8-2-8h-1m5 16l-1 1h2l-1-1" class="st61"/><path d="M700 450l-1 1h2l-1-1" class="st62"/><path d="M700 445c0-2 1-4-1-5-1-1-1 1-1-2l-1 2v2c1-2 3-1 2 1l1 2m-1-3h-1v2l2-1-1-1m-2 8l1 1h-2l1-1" class="st61"/><path d="M697 450l1 1h-2l1-1" class="st62"/><path d="M660 453l-1-15h-1l1 6v8l1 1" class="st63"/><path d="M656 448l22-2v2l-22 2v-2" class="st64"/><path d="M656 445l22-1v2l-21 1-1-2" class="st65"/><path d="M659 442l19-1v2l-19 1v-2" class="st66"/><path d="M658 440a1226 1226 0 0 1 20 1l-19 1-1-2" class="st67"/><path d="M659 437l18-1v2l-18 1v-2" class="st64"/><path d="M659 436l1 1-1 1-1-1 1-1m0 1v7c-3 4-2 6 1 9h-3c-1-1-3-5-1-7l1-1c3-2-3-8 2-8m-2 15l1 1-2 1 1-2" class="st68"/><path d="M657 453h1-2 1" class="st69"/><path d="M656 448c-1-2-2-4 0-5 1-1 2 0 2-2v3c-1-2-2 0-2 2h1l-1 2m1-4l1 1-1 1h-1l1-2m3 8l-1 1h2l-1-1" class="st68"/><path d="M660 452l-1 1h2l-1-1" class="st69"/><path d="M831 452l1-16h1l-1 7 1 7-2 2" class="st56"/><path d="M835 446l-22-1v2l22 1v-2" class="st24"/><path d="M835 444l-22-2v2l21 2 1-2m-3-3l-19-1v2l19 1v-2m1-3l-19-1-1 2 19 1 1-2" class="st70"/><path d="M832 436l-18-1-1 2 19 1v-2" class="st24"/><path d="M832 435l-1 1h2l-1-1m0 0v8c3 3 3 6-1 9h3c2-2 3-6 1-8l-1-1c-3-2 3-8-2-8m2 16l-1 1h2l-1-1" class="st61"/><path d="M835 451l-1 1h1v-1" class="st62"/><path d="M835 446c1-1 2-4 0-5-1-1-2 1-1-2l-1 2v2c1-2 2 0 2 1l-1 1 1 1m-1-3l-1 1 1 1 1-1-1-1m-2 8l1 1h-3c0-1 1-2 2-1" class="st61"/><path d="M831 451l1 1h-2l1-1" class="st62"/><path d="M795 450v-15h-1v6l-1 7 2 2" class="st63"/><path d="M791 444l22 1v2a808 808 0 0 0-22-3" class="st24"/><path d="M792 442h21v2a751 751 0 0 0-21-2m3-3l18 1v2l-19-1v-2m0-2h19v2h-19v-2" class="st70"/><path d="M795 434l19 1v2l-19-1v-2" class="st24"/><path d="M795 433l1 1-1 1-1-1 1-1m1 1l-1 1v6c-4 3-4 6 0 9h-3c-2-2-3-6-1-8l2-1c2-2-2-8 2-8h1m-4 16l1 1h-3l1-1" class="st68"/><path d="M791 449l1 1h-2l1-1" class="st69"/><path d="M791 444c-1-1-1-4 1-5 1-1 1 1 1-2l1 3v1c-1-2-2-1-2 1l1 1-2 1m1-3l1 1v1l-2-1 1-1m2 8l-1 1h2l-1-1" class="st68"/><path d="M795 449l-1 1h1v-1" class="st69"/><path d="M848 407c100 8 198 28 293 59l-14 43c-92-30-186-49-282-56l3-46" class="st17"/><path d="M848 407l15 2-4 45-14-1 3-46zm282 55l14 5-14 43-14-4 14-44zm-27-8l14 4-14 43-13-4 13-43zm-28-8l14 3-13 44-13-3 12-44zm-28-7l14 3-11 44-14-3 11-44zm-28-7l14 3-10 45-14-3 10-45zm-29-6l15 3-10 45-13-3 8-45zm-28-5l14 3-8 45-13-3 7-45zm-28-4l14 2-7 45-14-2 7-45zm-29-4l15 2-7 45-13-2 5-45zm-28-3l14 1-5 46-14-2 5-45" class="st24"/><path fill="#afaf8f" d="M1017 432c42 9 83 20 124 34l-14 43-12-4c-45-30-91-56-138-80l40 7"/><path d="M1104 498l-12-8 11-37 14 5-13 40zm-24-16l-13-8 8-28 14 3-9 33zm-25-15l-13-8 5-20 14 3-6 25zm-26-15l-13-7 3-13h1l13 3-4 17zm-26-14l-13-7v-4l15 2-2 9zm127 24l14 4-14 44-13-5 13-43" class="st25"/><path d="M845 453h8c38-12 76-22 115-31-40-7-80-11-120-15l-3 46" class="st74"/><path d="M845 453h8l6-2 4-43-15-1-3 46zm28-6l15-4 3-32-14-1-4 37zm29-9l15-4 3-19-15-2-3 25zm30-7l15-4 1-8-14-2-2 13zm30-8l6-1-6-1v2z" class="st75"/><path d="M849 403c50 4 100 11 149 21l16-79c-56 16-112 35-165 58z" class="st2"/><path d="M849 404l14 1c49-23 99-43 151-60-56 16-112 35-165 58zm28 2l15 2c39-23 80-44 122-63-47 18-92 38-137 61zm29 3l14 2c30-23 62-45 94-66-37 20-73 41-108 64zm28 4l15 2c21-24 42-47 65-70-27 22-54 44-80 68zm29 5l14 2 37-75-51 72zm28 5l7 1 16-79-23 78z" class="st24"/><path d="M1145 463c-48-16-96-29-146-39l15-79c47 36 90 76 131 118z" class="st2"/><path d="M1145 463l-14-5c-36-40-75-78-117-113 47 36 90 76 131 118zm-27-9l-14-4c-28-36-58-71-90-105 37 35 71 71 104 109zm-28-8l-14-4c-19-33-40-65-62-97 27 33 52 66 76 101zm-28-8l-14-3c-10-30-22-60-34-90l48 93zm-28-6l-14-4-6-83 20 87zm-29-7l-7-1 16-79-9 80z" class="st24"/><path d="M1061 440l-1 6c-2 3-5 5-9 4-3 0-5-4-5-7v-1l1-5 1-2 14 3-1 2zm-198-33l-1 6c-1 3-4 5-7 5-4 0-7-3-7-6v-1-6l1-1 14 1v2zm28 2v6c-1 4-5 6-8 6-4-1-6-3-6-7v-6-2l15 2-1 1zm29 4l-1 6c-1 3-4 5-8 5-3-1-6-3-6-7v-1l1-5v-2l14 2v2zm28 4l-1 6c-1 3-4 5-8 5-3-1-6-4-6-7v-1l1-5 1-2 14 2-1 2zm29 5l-1 6c-1 3-5 5-8 4-4 0-6-3-6-7l1-6v-2l14 3v2zm28 5l-1 6c-1 4-5 6-8 5-4-1-6-4-6-8l1-6v-2l15 3-1 2zm28 6l-1 6c-1 4-5 6-8 5-4-1-6-4-6-8l1-6 1-2 14 4-1 1" class="st17"/><path d="M1089 448l-1 6c-2 3-6 4-9 3-3 0-6-4-5-7v-1l1-5 1-2 14 4-1 2m28 8l-2 6c-1 3-5 5-8 3-4 0-6-4-5-7v-1l1-5 1-2 14 4-1 2m28 9l-2 5c-2 4-6 5-9 4s-6-4-5-8l2-6 1-2 13 5v2" class="st2"/><path d="M1061 440l-1 6c-1 4 2 7 5 8 4 1 7-1 9-4v-1l1-5 1-2-14-4-1 2zm-198-33l-1 6c0 3 3 6 7 6 3 1 7-2 7-5v-1l1-5v-2l-14-1v2zm28 2v6c0 4 3 7 6 7 4 1 7-1 8-5v-1l1-5v-2l-14-1-1 1zm29 4l-1 6c0 3 3 6 6 7 4 0 7-2 8-5v-1l1-5v-2l-14-2v2zm28 4l-1 6c0 3 3 6 6 7 4 1 7-1 9-5v-1l1-5v-2l-14-2-1 2zm29 5l-1 6c0 3 2 6 6 7 3 1 7-1 8-5l1-6v-2l-14-2v2zm28 5l-1 6c0 4 2 7 6 8 3 0 7-1 8-5v-1l1-5 1-2-14-3-1 2zm28 6l-1 6c0 4 2 7 5 8 4 1 7-1 9-4v-1l1-5 1-2-14-3-1 1m56 15l-1 6c-1 3 1 6 5 7 3 1 7 0 8-4l2-5 1-2-14-4-1 2m28 8l-2 6c0 3 2 7 5 8 4 1 7-1 9-4v-1l2-5v-2l-13-4-1 2" class="st75"/><path d="M979 355l35-10 29 23-64-13" class="st24"/><path d="M979 355l35-10-9 15-26-5" class="st29"/><path d="M1037 483c89 22 175 54 257 96l-1 2c-82-41-168-73-257-96l1-2" class="st33"/><path d="M1115 418c17 4 29 22 23 38-5 16-24 25-40 20-14-5-27-22-23-38 5-17 25-25 40-20m-33 46c6 2 9 8 8 13s-8 9-14 8-9-8-8-14 8-8 14-7" class="st34"/><path d="M1092 498l-5-2 17-51-12 53zm7-33a585 585 0 0 1-1 3l1-3zm3-12l7-3-7 5v-2zm-1 5l-7-11 6 13 1-2zm-9 30l-9-14 8 18 1-4zm-6-8l-8-1 9 2-1-1zm-1-2l1-4-1 5v-1z" class="st35"/><path d="M1087 440s5 2 5 6c-4-1-5-5-5-7m-3 9s4-3 8-1c-2 3-6 2-8 1m-4 20s1 3-1 5c-2-2 0-4 1-5m-6 3s4 0 5 3c-3 0-4-2-5-3" class="st36"/><path d="M1248 465c15 6 25 25 18 41-7 15-27 21-42 14-14-6-25-24-19-40s28-21 43-15m-39 42c6 2 9 9 6 14s-8 8-14 6-9-9-7-14 9-8 15-6" class="st34"/><path d="M1215 542l-5-2 23-49-18 51zm11-32l14-5-16 8 2-3zm4-11l8-3-9 4 1-1zm-2 4l-5-12 4 14 1-2zm-12 29l-7-15 6 19 1-4zm-5-9l-7-1 8 3-1-2zm-1-1l2-4-1 5-1-1z" class="st35"/><path d="M1217 483s5 3 4 7c-4-1-4-5-4-7m-4 8s5-2 8 1c-3 2-6 0-8-1m-6 20s0 3-2 5c-1-2 1-4 2-5m-6 2s3 1 3 4c-2 0-3-3-3-4" class="st36"/><path d="M1053 460l10-6-11 8 1-2zm2-9l5-3-5 4v-1z" class="st37"/><path d="M1295 553c5 2 7 8 5 12s-8 5-12 3-6-7-4-11 7-6 11-4" class="st39"/><path d="M1299 571l-4-10 3 11 1-1zm-3-5l-6-2 7 3-1-1zm0-1l1-4-1 4v-1z" class="st37"/><path d="M1294 556s0 3-2 4c-1-2 1-4 2-4" class="st40"/><path d="M1292 570l-5-13 4 15 1-2zm-3-8l-6-2 6 3v-1zm0-1l1-3-1 3z" class="st37"/><path d="M1286 552s1 3-1 4c-1-2 0-3 1-4" class="st40"/><path d="M1268 566l4 1 17-39-21 37zm5-6l13-4-14 7 1-3zm8-1l5 3-6-3h1zm2-1l1-3-2 3h1z" class="st37"/><path d="M1291 555s-2 1-2 3c2 0 2-2 2-3" class="st40"/><path d="M1275 569l3 2 16-35-19 33zm4-5l12-3-13 5 1-2zm8-1l4 3-5-3h1zm1-1l1-3-2 3h1z" class="st37"/><path d="M1295 559s-2 1-2 3c2 0 2-2 2-3" class="st40"/><path d="M1289 557s2 1 3 3c-3 0-3-2-3-3" class="st41"/><path d="M1196 464c11 4 20 18 15 31-4 12-20 17-32 13s-20-19-16-31c5-12 20-19 33-13m-29 34c4 2 6 7 4 11s-6 6-11 4c-4-1-6-6-4-10 1-5 6-7 11-5" class="st39"/><path d="M1173 525l-4-2 16-39-12 41zm7-25l11-5-12 7 1-2zm3-9l6-3-6 4v-1zm-1 3l-5-9 4 11 1-2zm-9 24l-6-12 5 14 1-2zm-4-7l-6-2 6 3v-1zm0-2l1-3-1 4-1-1z" class="st37"/><path d="M1173 479s3 2 3 5c-3 0-3-3-3-5m-3 6s3-2 6 0c-2 3-5 1-6 0m-5 16s1 3-1 4c-1-2 0-3 1-4" class="st40"/><path d="M1161 503s2 0 3 3c-3 0-3-2-3-3" class="st41"/><path d="M1168 446c15 5 25 22 20 38-5 15-24 20-39 16-15-5-24-22-20-37 5-16 25-22 39-17" class="st42"/><path d="M1130 489c3 2 5 6 4 9-2 4-6 6-9 4-4-1-6-5-4-8 1-4 5-6 9-5" class="st43"/><path d="M1136 512l-4-2 13-33-9 35zm5-22l9-4-10 6 1-2zm2-8l5-2-5 3v-1zm-1 3l-4-7 4 9v-2zm-6 20l-6-9 5 12 1-3zm-4-5l-5-1 5 2v-1zm0-1v-3 3h-1z" class="st44"/><path d="M1134 473s3 2 3 4c-3 0-3-3-3-4m-2 5s3-1 5 0c-1 2-4 1-5 0" class="st45"/><path d="M1129 492s0 2-1 3c-1-1 0-3 1-3" class="st46"/><path d="M1125 493s2 1 2 3l-2-3" class="st45"/><path d="M1281 511c10 4 16 17 11 27s-18 13-28 9-16-17-11-27c4-11 18-14 28-9" class="st42"/><path d="M1254 538c4 1 5 6 3 9s-6 5-9 3c-4-2-5-6-4-9 2-4 7-5 10-4" class="st43"/><path d="M1258 561l-4-2 17-32-13 34zm7-21l10-3-11 5 1-2zm4-8l5-1-6 2 1-1zm-2 3l-3-7 3 9v-2zm-9 19l-4-10 4 12v-2zm-3-6l-4-1 5 2-1-1zm0-1l1-2-1 3v-1z" class="st44"/><path d="M1260 522s3 2 3 5c-3-1-3-4-3-5m-2 5s3-1 5 0c-2 2-4 1-5 0" class="st45"/><path d="M1253 540s0 2-1 3c-1-1 0-3 1-3" class="st46"/><path d="M1249 541s2 1 2 3l-2-3" class="st45"/><path d="M1148 483c-6-2-11 1-13 6s1 10 7 11 10 0 12-5-1-10-7-12" class="st47"/><path d="M1158 496c-6-2-13 1-15 7s2 12 8 14 12-1 14-7-1-12-7-14" class="st48"/><path d="M1136 512h2l7-22-9 22zm6-14l-3-6 2 7 1-1zm2-5l-2-3 1 4v-1zm-1 2l5-2-5 3v-1zm-5 13l7-3-7 5v-2zm5-1l2 1-3-1h1zm0-1l1-1-1 1z" class="st49"/><path d="M1152 492s-2-1-3 1l3-1m-1 4c0-2-1-2-3-3l3 3" class="st50"/><path d="M1148 504c-1 0-2 1-1 2l1-2" class="st47"/><path d="M1149 506h-2 2" class="st50"/><path d="M1154 504s-3 0-5 2c3 1 4-1 5-2m-1 6s-2-3-4-3c0 2 2 3 4 3" class="st45"/><path d="M1273 533c-5-2-11 0-13 5s0 10 5 12 11 1 13-4 0-10-5-13" class="st47"/><path d="M1279 547c-5-2-11 0-13 4s0 10 5 12 10 0 12-4 0-10-4-12" class="st48"/><path d="M1258 561l2 1 9-22-11 21zm7-13l-2-6 2 7v-1zm3-5l-2-3 1 4v-1zm-1 2l5-2-6 3 1-1zm-6 13l7-3-8 4 1-1zm4-1l3 1-3-1zm1-1l1-1-1 1z" class="st49"/><path d="M1276 543s-2-1-3 0h3m-1 3c0-1-1-2-3-2l3 2" class="st50"/><path d="M1271 554l-2 2 1-2" class="st47"/><path d="M1272 557h-3 3" class="st50"/><path d="M1277 555s-3-1-5 1c2 2 4 0 5-1m-2 6s-1-3-4-4c0 3 3 3 4 4" class="st45"/><path d="M1065 444c-7-2-14 2-15 8s2 14 9 15 14-2 16-8c2-7-3-13-10-15" class="st46"/><path d="M1054 487l4 1 8-38-12 37zm8-23l-6-9 6 12v-3zm2-8l-3-5 3 6v-1zm0 3l7-4-8 6 1-2z" class="st44"/><path d="M1073 456s-4 0-6 2c3 2 5 0 6-2m-1 7s-2-4-5-4c0 3 3 4 4 4" class="st45"/><path d="M1073 470c-4-1-8 2-9 6s1 8 6 9c4 1 8-1 9-5 1-5-2-9-6-10" class="st43"/><path d="M1058 482l11-6-12 8 1-2zm7-3l4 2-5-2h1zm1-1v-3l-1 3h1z" class="st44"/><path d="M1072 473s-2 2-1 4c2-1 1-3 1-4m3 4s-2-1-4 0c2 2 3 1 4 0m120 8c-7-3-15 1-17 7s1 13 8 16 14-1 17-7-2-13-8-16" class="st46"/><path d="M1179 527l3 1 13-37-17 36zm10-22l-5-10 4 12 1-2zm3-8l-2-5 2 6v-1zm-1 3l9-3-9 5v-2z" class="st44"/><path d="M1200 498s-3 0-5 2c3 1 5-1 5-2m-1 7s-2-4-5-4c0 3 3 3 5 4" class="st45"/><path d="M1199 512c-4-1-8 1-10 5-1 4 1 9 5 10s8-1 10-5c1-4-1-8-5-10" class="st43"/><path d="M1183 522l11-5-12 7 1-2zm7-2l5 2-6-2h1zm1-1l1-3-2 3h1z" class="st44"/><path d="M1198 515s-2 2-2 4c3-1 2-3 2-4m3 4s-3-1-4 0c1 2 3 1 4 0m-85-89c10 3 18 14 15 25-4 10-16 15-26 12s-18-14-15-24c3-11 15-16 26-13" class="st46"/><path d="M1095 499l-6-2 20-59-14 61zm8-38l16-8-17 11 1-3zm4-14l8-4-9 6 1-2zm-2 5l-7-12 7 15v-3z" class="st44"/><path d="M1095 441s6 3 6 8c-5-1-6-6-6-8m-4 10s5-3 10-1c-3 4-8 2-10 1" class="st45"/><path d="M1084 460c7 2 11 9 9 15s-9 11-16 9-11-9-9-16 9-10 16-8" class="st43"/><path d="M1095 488l-10-17 9 21 1-4zm-7-10l-9-1 10 3-1-2zm-1-2l1-4v5l-1-1z" class="st44"/><path d="M1082 465s1 3-1 6c-2-3-1-5 1-6m-7 2s4 1 5 4c-3 1-5-2-5-4m172 10c10 4 16 16 12 26-5 10-18 14-28 10s-16-16-12-26c4-11 17-14 27-10" class="st46"/><path d="M1219 543l-6-2 26-57-21 59zm12-37l16-5-18 9 1-4zm5-13l9-3-10 5 1-2zm-2 5l-6-13 5 16 1-3z" class="st44"/><path d="M1225 486s5 3 5 8c-5-1-5-6-5-8m-5 9s5-3 9 0c-3 4-7 1-9 0" class="st45"/><path d="M1211 503c7 3 10 10 8 17s-11 9-17 6-10-10-8-16 10-9 17-7" class="st43"/><path d="M1219 532l-8-18a1799 1799 0 0 1 8 18zm-6-10l-8-2 9 3-1-1zm0-2l2-5-2 6v-1z" class="st44"/><path d="M1209 508s1 3-2 5c-2-2 0-5 2-6m-7 3s4 1 4 4c-3 0-4-3-4-4" class="st46"/><path d="M1250 497c8 4 12 13 9 20s-13 11-21 7-12-12-9-19 13-11 21-8" class="st51"/><path d="M1228 547l-4-2 20-42-16 44zm10-28l12-4-14 7 1-3zm4-9l6-3-7 4 1-1zm-2 3l-5-10 4 12 1-2z" class="st52"/><path d="M1233 504s4 2 4 6c-4-1-4-4-4-6m-3 7s4-2 7 0c-3 3-6 1-7 0" class="st53"/><path d="M1223 517c5 2 7 8 5 12s-7 7-12 5-8-7-6-12 8-7 13-5" class="st43"/><path d="M1229 539a803 803 0 0 0-1 3l1-3zm-5-8l-6-1 7 2-1-1zm0-1l1-4-1 4z" class="st44"/><path d="M1221 520s1 3-1 5c-2-2 0-4 1-5m-5 2s3 1 3 3c-3 0-3-2-3-3" class="st46"/><path d="M1089 432l8 2-1 2-4 7-5-2v-9h2" class="st54"/><path d="M1090 432l6 2v2l-4 6-5-1v-8l1-1h2" class="st55"/><path d="M1091 433h3l-1 2-2 7-2-1 1-7 1-1" class="st17"/><path d="M1091 430l1-1h-1v-1h2l1-3h-1 1v-1h1l-1 1h1v1l-1-1v3l1 1h-1v1h1l1 2v1h1v1l-10-2v-1h1v-1h1l2-1zm-15 49l1-2h-1v-1h3v-1-1h1l7-26 1-2-2-1h2v-1-1h1l-2-1h1v-1l4 1-1 1h1-2l1 1-1 1h-1l1 1h1v1l-2-1v3l-7 25 1 1-1 1-1 1h2l-1 1h1l1 1h-1l-1 1 2 1v1h-1l-4 12-7-2 3-13h-1l1-1 2 1m143-3l7 3-1 2-4 6-6-2 2-8v-1h2" class="st54"/><path d="M1220 476l7 3-1 2-4 6-5-2 1-8v-1h2" class="st55"/><path d="M1222 477l2 1-1 1-3 7-2-1 2-7 1-1h1" class="st17"/><path d="M1222 474l1-1h-1v-1h1l1 1 1-3h1v-1 2-1l-1 3 1 1h-1v1l1 1 1 2v1h1l-1 1-9-4v-1h1c1-1 2-2 3-1zm-20 47v-1l-1-1h1v-1l1 1v-1l2 1v-1-1l1-1 9-24h1l1-2-2-1v-1l1 1v-1l1 1 1-1h-1v-1h1v-1h-2v-1h2l3 1-1 1h1v1l-2-1v1h1l-1 1h-1l1 1h1v1l-2-1-1 3h1l-10 24v1l-1 1v1h1v1h1v1h-1l-1 1 2 1v1h-1l-5 12-7-3 4-12-1-1 1-1 2 1" class="st54"/><path d="M1086 496l4-15h-1l-2 6-3 7 2 2" class="st56"/><path d="M1083 489a858 858 0 0 1 0 2v-2" class="st57"/><path d="M1085 487a1618 1618 0 0 1 20 8l-21-6 1-2" class="st58"/><path d="M1088 485a966 966 0 0 1 18 8l-19-6 1-2" class="st59"/><path d="M1088 483a648 648 0 0 1 0 2v-2" class="st60"/><path d="M1090 481a956 956 0 0 1-1 1l1-2" class="st57"/><path d="M1090 480l1 1h-1l-1-1h1m0 0l-1 1v3l-1 2v1c-5 3-5 5-2 9l-4-1c0-2 0-6 2-8h1c3-1 0-8 5-7m-7 14v1h-2l1-1" class="st61"/><path d="M1082 494l1 1h-2l1-1" class="st62"/><path d="M1083 489c0-1 0-4 2-4 2-1 1 1 2-2v4c0-2-2-1-3 0l1 1-2 1m2-3l1 1c0 1 0 2-1 1l-1-1 1-1m0 9h-1l2 1-1-1" class="st61"/><path d="M1085 495l-1 1h2l-1-1" class="st62"/><path d="M1120 506l5-14h1l-2 6-1 7-3 1" class="st63"/><path d="M1126 502a864 864 0 0 0-1 2l1-2" class="st64"/><path d="M1126 500a711 711 0 0 0-1 2l1-2" class="st65"/><path d="M1124 496l-18-5-1 2 19 5v-2" class="st66"/><path d="M1125 494l-18-6-1 2 19 6v-2" class="st67"/><path d="M1126 492l-18-6-1 2 18 5 1-2" class="st64"/><path d="M1126 491h-1v1h1v-1m-1 0v1l-1 3v2l-1 1c3 5 2 7-3 9l4 1c1-2 4-5 3-8l-2-1c-1-2 5-7 1-8h-1m-1 16h-1l2 1-1-1" class="st68"/><path d="M1124 507h-1l2 1-1-1" class="st69"/><path d="M1126 502c1-1 2-3 1-5-1-1-2 0-1-2l-1 2-1 1c2-2 3 1 2 2h-1l1 2m0-3h-1v1h1v-1m-5 7l1 1-2-1h1" class="st68"/><path d="M1121 506l1 1-2-1h1" class="st69"/><path d="M1209 539l6-14-1-1-2 6-4 7 1 2" class="st56"/><path d="M1208 532l20 9-1 2-20-9 1-2" class="st64"/><path d="M1209 530l20 9-1 2-20-9 1-2m4-1l17 7-1 2-17-7 1-2m0-3l18 8v2l-18-8v-2" class="st76"/><path d="M1215 524l17 8v1l-18-7 1-2" class="st64"/><path d="M1215 524l1 1h-1l-1-1 1-1m1 1l-1 1-1 3-1 2-1 1c-5 2-5 4-3 8l-3-1c0-2 0-6 2-7l2-1c3 0 1-8 5-6h1m-10 13l1 1-2-1h1" class="st61"/><path d="M1206 537v1l-1-1h1" class="st62"/><path d="M1207 532c1-1 1-4 3-4s1 1 2-1v3c-1-2-3-1-3 1l1 1h-3m3-2l1 1-2 1-1-2h2m-1 8h-2l3 1-1-1" class="st61"/><path d="M1209 538l-1 1h2l-1-1" class="st62"/><path d="M1243 554l6-14h1l-3 6-2 7-2 1" class="st63"/><path d="M1249 550l-21-9v2l20 9 1-2" class="st64"/><path d="M1249 548l-20-9-1 2 21 8v-2m-1-3l-18-8v2l17 8 1-2m1-2l-18-8-1 2 18 8 1-2" class="st76"/><path d="M1250 539l-18-7v1l17 8 1-2" class="st64"/><path d="M1250 538l-1 1v1l1-1v-1m-1 1l1 1-2 3-1 1v2c2 5 0 6-4 8l3 1c2-1 5-4 4-7l-1-1c-2-3 5-6 1-8h-1m-2 15l-2 1 2 1-1-2" class="st68"/><path d="M1247 555h-1l1 1v-1" class="st69"/><path d="M1249 550c1-1 3-3 2-5-1-1-2 0-1-2l-2 2v1c2-1 2 1 1 2h-1l1 2m0-3h-1v1h2l-1-1m-5 6l1 1-3-1h2" class="st68"/><path d="M1244 553v1h-1l1-1" class="st69"/><path d="M1196 510c-6-2-12 1-15 6s1 12 7 15 13-1 15-6-1-13-7-15" class="st48"/><path fill="#6a873c" d="M1196 440c12 5 23 20 17 34-5 13-22 18-35 14-13-5-22-21-18-34 5-13 22-20 36-14"/><path fill="#607b36" d="M1202 474c9 4 14 13 11 22s-14 12-23 8-14-13-10-21 13-13 22-9"/><path d="M1203 443l52-53 3 1c23 17 44 35 66 54-11-7-22-12-34-17-8 2-20 4-27 10-10-5-19-7-30-9-11 4-20 9-30 14" class="st79"/><path d="M1252 394l3-4h3v1l32 37c-9 1-20 4-27 10l-2-1-9-43" class="st24"/><path fill="#ffe500" d="M1203 443l52-53h2l6 48c-10-5-20-7-30-9-11 4-20 9-30 14"/><path d="M1203 443a2166 2166 0 0 1 54-52l6 47c-10-5-19-7-30-9-11 4-20 9-30 14" class="st24"/><path d="M1255 390h2l6 48c-9-5-20-8-30-9l22-39" class="st79"/><path d="M1264 436s-2 8 8 18c7 7 16 8 21 16 3 5 4 15 8 18h-1c-3-3-5-13-8-17-5-8-14-10-21-16-10-11-8-19-8-19h1m0 7l-2 2-1 2-1-3-1-2 2 1h3m0 0l3 1h3l-2-2-1-3-1 2-2 2m5 8l-2 2-1 2-2-3-1-2 3 1h3m0 0l2 1h3l-1-2-1-3-2 2-1 2" class="st24"/><path d="M1276 458l-1 2-1 3-2-2-2-2 3-1h3m0 0h2l3-1-2-2-2-2v3l-1 2" class="st79"/><path d="M1170 486l-3-2-1 1v2l1-1v-1l3 1v1l-1 1h1v-2c1 0 0 0 0 0m3 2l-9-3-3 6 9 4 2-7m22 0l3 1-7 16-2-1 6-16m-31-11h2l-5 17-3-1 6-17" class="st24"/><path d="M1156 473l2 1v1l1 1h1v-1h1l2 1v2l2-1v-1l2 1v1l1 1h2v-1l2 1v1l1 1 1-1h3l-1 1 1 2 2-1v-1l2 1v1l1 1h1v-1h1l2 1v2l2-1 2 1 1 2 2-1v-1l2 1v1l1 2 1-1v-1l3 1-1 1 1 1h2v-1l2 1 2-7-48-18-2 7" class="st2"/><path d="M1158 474l3-7-3-1-2 7v1l1 1h1v-1zm46 17v1h-2v-1-2l3-6 2 1-3 6v1zm-4-2l-1 1-1 1-1-2v-1l3-7 2 1-2 7zm-5-2v1l-2 1-1-2h1l2-8 3 1-3 7zm-5-1v1h-1l-1-1v-1l3-7 2 1-2 6-1 1zm-4-2v1h-2l-1-1 1-1 2-7 2 1-2 6v1zm-5-2v1l-1 1-1-2 3-8 2 1-3 7zm-4-1l-2 1-1-1v-1l3-7 2 1-2 7zm-5-2v1h-1l-1-1v-1l2-7 3 1-3 7zm-4-2l-1 1-1 1-1-2v-1h1l2-6h2l-2 7zm-5-2v1l-2 1-1-1 1-1 2-7 2 1-2 6" class="st24"/><path d="M1156 473l2 1v1l1 1h1v-1h1l2 1v2l2-1v-1l2 1v1l1 1h2v-1l2 1v1l1 1 1-1h3l-1 1 1 2 2-1v-1l2 1v1l1 1h1v-1h1l2 1v2l2-1 2 1 1 2 2-1v-1l2 1v1l1 2 1-1v-1l3 1-1 1 1 1h2v-1l2 1v-1l-48-18v1" class="st74"/><path d="M1158 474l1-1-3-1v2l1 1h1v-1zm3 0l2 1v1l-2 1-1-1 1-1v-1zm5 1l2 1-1 2-1 1-1-2v-1l1-1zm4 2l3 1-1 2h-2v-3zm5 2h2l-1 2-1 1-1-1v-1l1-1zm4 1l3 1-1 2-1 1-1-2v-2zm5 2l2 1v2h-2l-1-1 1-1v-1zm5 2l2 1-1 2h-1l-1-1v-1l1-1zm4 1l3 1-1 2-2 1v-4zm5 2l2 1-1 2-1 1-1-2v-1l1-1zm4 2l3 1h-1v2h-2v-1-2" class="st75"/><path d="M1155 491l39 14-6 17-39-14 6-17" class="st17"/><path d="M1155 491h2l-6 18-2-1 6-17zm38 14h2l-7 17h-2l7-18zm-4-2l2 1-7 17-2-1 7-17zm-4-1h2l-7 18-1-1 6-17zm-4-2l2 1-6 17h-2l6-18zm-3-1l1 1-6 17-2-1 7-17zm-4-2l2 1-7 17h-2l7-18zm-4-1l2 1-6 17-2-1 6-17zm-4-1h2l-6 18-2-1 6-17zm-4-2l2 1-6 17h-2l6-18zm-3-1l2 1-7 17-2-1 7-17" class="st24"/><path d="M1148 507l41 15v1l-41-15v-1" class="st81"/><path d="M1157 490l36 13-1 2-35-13v-2" class="st82"/><path d="M1160 463l2 1h1l1 1 2 1v-1l2 1h1v1h3l1 1 3 1h1l1 1 2 1v-1h2l1 1h-1l3 1h1l1 1 2 1h3v1l2 1v-1h1l1 1 3 1h1l1 1 2 1h2l1 1h-1 2l-1 3-48-17 1-3" class="st17"/><path d="M1162 464l-1 3-3-1 1-2 1-1h1l1 1zm46 17l-1-1h-1l-1 3 2 1 1-3zm-5-2h1l-1-1h-2v1l-1 2 2 1 1-2v-1zm-4-1v-1h-2l-1 3h2l1-2zm-5-2l-1-1h-1l-1 3 2 1 1-3zm-4-2l-1-1h-2v1l-1 2 3 1 1-3zm-5-1v-1l-1-1h-1v1l-1 2 2 1 1-2zm-5-2l-1-1h-1l-1 3 2 1 1-3zm-4-2l-1-1h-2v3l2 1 1-3zm-5-1v-1l-1-1h-1v1l-1 2 2 1 1-2zm-5-2h1l-1-1h-2l-1 3 2 1 1-3" class="st75"/><path d="M1173 500v1l1-1v1h2v1l1-1v1h2-1 2l-1 1h2l-1 1h2-1 2l-2 1h2l-1 1h1-1l1 1h-1l1 1h-2 2-2l1 1h-2l1 1h-2 1-2l1 1h-2 1-2v1l-1-1v1l-2-1v1h-1-4v-1l-2 1v-1l-1 1v-1h-2 1-2v-1h-2l1-1h-2l1-1h-2 1-1l1-1h-2l2-1h-2 2l-2-1h2l-1-1h2-2 2l-1-1h2l-1-1h2-1 2v-1l1 1v-1h1l1-1 1 1v-1l1 1 1-1 1 1 1-1v1l2-1m-1 2l1-1h2v2h1v1l-3 2-1-1h-1-3v-1 1h-2v-3h-1v-1l1-1v-1h4l-1 2h3zm-1 1h-1v1h1v-1zm2 1h0" class="st17"/><path d="M1168 500l-2 1 1 1-1-1v-1h1l2-1-2 6h-1l2-5zm3 1l1 1h-1v-1l-1 1v2h2l-2 1h-1l-1-1 1-2 1-1h1zm4 3h-1l-1 1v-1l1-1 1-1-1-1-1 1h-1v3h1l2-1zm-1-2v1h-1v-1h1" class="st82"/><path d="M1175 509l1-3h6v3h2l-1 1-1 1h-1c-1 0-2 0-1-1v-1l-1 2h-5l-1-1-1 1-2-1-2 1-1-1-1-1 1-2h-1l-1 3h-4-1v-2-2l2-1h6v1l1-1h2l1 1 2-1h2l-1 4h1-1zm-5-1l-1 1h1v-1zm-7 0v-1h-1v1h1zm10-1l-1 2h1v-2" class="st17"/><path d="M1163 505l1 1-1 1v-1h-1v2h-1l1 1h1l1-1-3 2-1-1v-1l1-2 1-1h1zm0 5h1l1-3 1-1v1h1v-1h-1l-2-1-1 5zm8-1l-3 1h-1v-1l1-2 1-1h2v1l-1 1h-1v1h2zm-1-3l-1 1-1 1 2-2zm6 3l-1 1-1-1h1v-3h-1-1-1l-1 1v2l1 1h2l2-1zm-2-2l-1 2h-1v-1l1-1v-1l1 1zm7 4l-1-1v-1l1-1-1-1v1l-1 3h-2l1-3v-1l-1 1-1 2h-1l1-4h2l-1 1 2-1 1 1 1-1 1 1v1l-1 1v1h1l1-1-1 2h-1" class="st82"/><path d="M1154 490l41 16-42-15 1-1" class="st81"/><path d="M1174 496l-11-4 1-3 11 4-1 3m-2-5l-4-2-1 1v1c-1 0 0 0 0 0v0-1h1l3 1v2h-1 1l1-2m-19 10c4 2 6 6 5 11-2 4-7 6-11 4s-6-6-4-10c1-4 6-7 10-5zm0 2c-3-1-7 1-8 4s1 6 4 7 7 0 8-3c1-4-1-7-4-8" class="st83"/><path d="M1153 502c4 1 6 6 4 9-1 4-6 6-10 4-3-1-5-5-4-9 2-4 6-6 10-4zm0 1c-4-1-7 1-8 4s1 7 4 8 7-1 8-4c1-4-1-7-4-8" class="st64"/><path d="M1155 505h1l-4 3 5-1v1l-5 1 5 1v1l-6-2 4 4-4-4 1 6-1-6-2 5 1-5-4 4v-1l4-3-5 1-1-1h6l-5-2v-1l5 2-4-4h1l3 4-1-5h1l1 5 2-5-2 5 4-4" class="st83"/><path d="M1151 507c1 0 2 1 1 2l-2 1-1-2 2-1" class="st64"/><path d="M1151 507l1 2-2 1-1-2 2-1" class="st81"/><path d="M1151 508v1l-1-1h1" class="st64"/><path d="M1188 514c4 2 6 6 4 10a8 8 0 0 1-15-6c2-4 7-6 11-4zm-1 2c-3-1-6 0-7 3s0 7 3 8 7-1 8-4-1-6-4-7" class="st83"/><path d="M1188 514c4 2 5 6 4 10s-7 6-10 4c-4-2-6-6-4-10 1-4 6-5 10-4zm-1 1a6 6 0 1 0-4 12c4 1 7 0 8-3 1-4 0-7-4-9" class="st64"/><path d="M1190 517v1l-4 3 5-1v1h-5l5 2v1l-5-2 3 4-4-4 2 5h-1l-1-5-2 5 2-5-5 3 4-4-5 1 5-1-5-2 5 2-3-5 4 4-1-5 1 5 2-5-2 5 5-3" class="st83"/><path d="M1186 520v2l-2 1-1-2c1-1 2-2 3-1" class="st64"/><path d="M1186 520v2h-2v-1l1-1" class="st83"/><path d="M1185 521h1l-1 1-1-1h1" class="st64"/><path d="M1325 366l3 1v1l20 51c-11-2-24-5-36-1l-1-2 14-50" class="st24"/><path fill="#ff9046" d="M1325 366l2 1-15 51c-9-9-19-16-30-21l43-31"/><path d="M1315 417s-6 7 1 21c5 9 13 15 17 25 1 6-2 17 1 21l-1 1c-2-5 0-16-2-22-3-9-11-16-17-24-7-15-1-23-1-23l2 1m-4 7l-2 1-3 2v-3l-1-3 3 1 3 2m0 0l3 1 3 2v-3-3l-3 1-3 2m2 10l-2 1-3 2v-3l-1-3 3 2 3 1m0 0l3 2 3 1v-3-3l-3 2-3 1" class="st24"/><path d="M1318 444l-1 2-2 2-2-3-1-2h3l3 1m0 0l4 1h3l-1-3-2-2-2 2-2 2" class="st79"/></svg>