<svg xmlns="http://www.w3.org/2000/svg" viewBox="0 0 108 108"><defs><style>.cls-1{isolation:isolate;}.cls-2,.cls-4{fill:#7362d0;}.cls-3,.cls-4{mix-blend-mode:multiply;}.cls-5{fill:#fff;}.cls-6{fill:#7362d0;}.cls-7{fill:#7362d0;}.cls-8{fill:#504491;}.cls-9{fill:#504491;}.cls-ex{fill:#8f81d9}</style></defs><title>Stop-reviewing-scans</title><g class="cls-1"><g id="art"><rect class="cls-2" x="44.77" y="32.33" width="56.75" height="41.27" rx="4" transform="translate(6.13 113.5) rotate(-78)"/><g class="cls-3"><rect class="cls-2" x="67.99" y="59.39" width="1.72" height="27.51" rx="0.5" transform="translate(-17.02 125.29) rotate(-78)"/><rect class="cls-2" x="68.7" y="56.03" width="1.72" height="27.51" rx="0.5" transform="translate(-13.16 123.32) rotate(-78)"/><rect class="cls-2" x="76.99" y="62.01" width="1.72" height="12.04" rx="0.5" transform="translate(-4.88 130.03) rotate(-78)"/><rect class="cls-2" x="77.7" y="58.65" width="1.72" height="12.04" rx="0.5" transform="translate(-1.02 128.07) rotate(-78)"/><rect class="cls-2" x="78.42" y="55.28" width="1.72" height="12.04" rx="0.5" transform="matrix(0.21, -0.98, 0.98, 0.21, 2.83, 126.1)"/></g><path class="cls-4" d="M70.29,66.38l1.41-6.65A.9.9,0,0,0,71,58.67l-11.7-2.49a.9.9,0,0,0-1.06.69l-1.42,6.65a.9.9,0,0,0,.69,1.07l11.7,2.49A.91.91,0,0,0,70.29,66.38Zm-11.61-3.3,1.08-5,10.09,2.15-1.07,5Z"/><circle class="cls-5" cx="75.11" cy="43.71" r="10.83"/><circle class="cls-2" cx="73.98" cy="49" r="1.62"/><rect class="cls-2" x="73.96" y="37.02" width="3.24" height="8.91" transform="matrix(0.98, 0.21, -0.21, 0.98, 10.27, -14.81)"/><rect class="cls-6" x="32.63" y="14.59" width="41.27" height="56.75" rx="4"/><g class="cls-3"><rect class="cls-2" x="39.51" y="62.74" width="27.51" height="1.72" rx="0.5"/><rect class="cls-2" x="39.51" y="59.3" width="27.51" height="1.72" rx="0.5"/><rect class="cls-2" x="54.99" y="55.86" width="12.04" height="1.72" rx="0.5"/><rect class="cls-2" x="54.99" y="52.42" width="12.04" height="1.72" rx="0.5"/><rect class="cls-2" x="54.99" y="48.98" width="12.04" height="1.72" rx="0.5"/></g><path class="cls-4" d="M53.27,56.68v-6.8a.91.91,0,0,0-.9-.9h-12a.9.9,0,0,0-.9.9v6.8a.9.9,0,0,0,.9.9h12A.9.9,0,0,0,53.27,56.68Zm-12-.82V50.7H51.55v5.16Z"/><circle class="cls-5" cx="53.27" cy="33.51" r="10.83"/><circle class="cls-6" cx="53.27" cy="38.91" r="1.62"/><rect class="cls-6" x="51.65" y="26.76" width="3.24" height="8.91"/><rect class="cls-7" x="14.22" y="24.59" width="41.27" height="56.75" rx="4" transform="translate(-10.25 8.41) rotate(-12)"/><g class="cls-3"><rect class="cls-2" x="25.39" y="72.29" width="27.51" height="1.72" rx="0.5" transform="translate(-14.35 9.74) rotate(-12)"/><rect class="cls-2" x="24.68" y="68.93" width="27.51" height="1.72" rx="0.5" transform="translate(-13.67 9.52) rotate(-12)"/><rect class="cls-2" x="39.27" y="63.95" width="12.04" height="1.72" rx="0.5" transform="translate(-12.49 10.83) rotate(-12)"/><rect class="cls-2" x="38.56" y="60.59" width="12.04" height="1.72" rx="0.5" transform="translate(-11.8 10.61) rotate(-12)"/><rect class="cls-2" x="37.84" y="57.23" width="12.04" height="1.72" rx="0.5" transform="translate(-11.12 10.39) rotate(-12)"/><g class="cls-3"><path class="cls-2" d="M37.61,66.86a2.87,2.87,0,0,0,0-1L36.4,60.22a2.63,2.63,0,0,0-.39-.89c-.16-.21-1-.24-1.27-.19L24,61.42a2.92,2.92,0,0,0-.88.4c-.22.16-.25,1-.19,1.26l1.2,5.67a2.86,2.86,0,0,0,.4.89c.16.22,1,.25,1.26.19l10.72-2.28C36.8,67.5,37.55,67.13,37.61,66.86ZM26.26,68a.51.51,0,0,1-.6-.39l-.86-4.06a.5.5,0,0,1,.38-.6L34.3,61a.49.49,0,0,1,.59.38l.87,4.07a.5.5,0,0,1-.39.59Z"/></g></g><circle class="cls-5" cx="32.89" cy="43.71" r="10.83"/><circle class="cls-7" cx="34.02" cy="49" r="1.62"/><rect class="cls-7" x="30.8" y="37.02" width="3.24" height="8.91" transform="translate(-7.91 7.65) rotate(-12)"/><path d="M72.27,91.8a2.49,2.49,0,0,0,3.52-.31l.87-1a2.51,2.51,0,0,0-.31-3.52L68,80a15.6,15.6,0,0,0-4.29-2.39l-.67-.22c-1.3-.43-2.68-.42-3.05,0s-.15,1.8.5,3l.33.62a15.38,15.38,0,0,0,3.1,3.81Z" class="cls-ex"/><path class="cls-8" d="M60,77.37c.37-.45,1.58-.51,2.69-.15l1.39.46a12.71,12.71,0,0,1,2.78,1.4l-4,4.75A13.19,13.19,0,0,1,61,81.34l-.69-1.29C59.78,79,59.63,77.82,60,77.37Z"/><path class="cls-9" d="M38.18,80.33a16.3,16.3,0,1,0-2-23A16.21,16.21,0,0,0,38.18,80.33Zm2.53-19.15A10.37,10.37,0,1,1,42,75.79,10.31,10.31,0,0,1,40.71,61.18Z"/></g></g></svg>