<svg id="art" xmlns="http://www.w3.org/2000/svg" viewBox="0 0 108 108"><defs><style>.cls-1{fill:#8f81d9;}.cls-2{fill:#7362d0;}.cls-3{fill:#8f81d9;}.cls-4{fill:#8f81d9;}.cls-5{fill:#7362d0;}.cls-6{fill:#7362d0;}.cls-7{fill:#fff;}</style></defs><title>Catalog</title><rect class="cls-1" x="42.79" y="14.02" width="33.52" height="33.67" rx="4.32" transform="translate(7.14 72.7) rotate(-66)"/><rect class="cls-2" x="63.41" y="43.15" width="2.79" height="2.79" transform="translate(-2.25 85.63) rotate(-66)"/><rect class="cls-2" x="59.59" y="41.45" width="2.79" height="2.79" transform="translate(-2.96 81.13) rotate(-66)"/><rect class="cls-2" x="65.11" y="39.33" width="2.79" height="2.79" transform="translate(2.25 84.91) rotate(-66)"/><rect class="cls-2" x="61.29" y="37.63" width="2.79" height="2.79" transform="translate(1.54 80.42) rotate(-66)"/><rect class="cls-2" x="66.81" y="35.51" width="2.79" height="2.79" transform="translate(6.75 84.2) rotate(-66)"/><rect class="cls-2" x="62.99" y="33.81" width="2.79" height="2.79" transform="translate(6.04 79.7) rotate(-66)"/><rect class="cls-2" x="68.51" y="31.69" width="2.79" height="2.79" transform="translate(11.25 83.49) rotate(-66)"/><rect class="cls-2" x="64.69" y="29.99" width="2.79" height="2.79" transform="translate(10.54 78.99) rotate(-66)"/><rect class="cls-2" x="70.21" y="27.87" width="2.79" height="2.79" transform="translate(15.75 82.78) rotate(-66)"/><rect class="cls-2" x="71.91" y="24.05" width="2.79" height="2.79" transform="translate(20.24 82.07) rotate(-66)"/><rect class="cls-2" x="68.09" y="22.35" width="2.79" height="2.79" transform="translate(19.53 77.57) rotate(-66)"/><rect class="cls-2" x="63.41" y="43.15" width="2.79" height="2.79" transform="translate(-2.25 85.63) rotate(-66)"/><rect class="cls-2" x="59.59" y="41.45" width="2.79" height="2.79" transform="translate(-2.96 81.13) rotate(-66)"/><rect class="cls-2" x="65.11" y="39.33" width="2.79" height="2.79" transform="translate(2.25 84.91) rotate(-66)"/><rect class="cls-2" x="61.29" y="37.63" width="2.79" height="2.79" transform="translate(1.54 80.42) rotate(-66)"/><rect class="cls-2" x="66.81" y="35.51" width="2.79" height="2.79" transform="translate(6.75 84.2) rotate(-66)"/><rect class="cls-2" x="62.99" y="33.81" width="2.79" height="2.79" transform="translate(6.04 79.7) rotate(-66)"/><rect class="cls-2" x="68.51" y="31.69" width="2.79" height="2.79" transform="translate(11.25 83.49) rotate(-66)"/><rect class="cls-2" x="64.69" y="29.99" width="2.79" height="2.79" transform="translate(10.54 78.99) rotate(-66)"/><rect class="cls-2" x="70.21" y="27.87" width="2.79" height="2.79" transform="translate(15.75 82.78) rotate(-66)"/><rect class="cls-2" x="71.91" y="24.05" width="2.79" height="2.79" transform="translate(20.24 82.07) rotate(-66)"/><rect class="cls-2" x="68.09" y="22.35" width="2.79" height="2.79" transform="translate(19.53 77.57) rotate(-66)"/><rect class="cls-2" x="55.77" y="39.75" width="2.79" height="2.79" transform="translate(-3.67 76.63) rotate(-66)"/><rect class="cls-2" x="51.95" y="38.05" width="2.79" height="2.79" transform="translate(-4.38 72.13) rotate(-66)"/><rect class="cls-2" x="57.47" y="35.93" width="2.79" height="2.79" transform="translate(0.83 75.92) rotate(-66)"/><rect class="cls-2" x="53.65" y="34.23" width="2.79" height="2.79" transform="translate(0.11 71.42) rotate(-66)"/><rect class="cls-2" x="59.17" y="32.11" width="2.79" height="2.79" transform="translate(5.33 75.21) rotate(-66)"/><rect class="cls-2" x="55.35" y="30.41" width="2.79" height="2.79" transform="translate(4.61 70.71) rotate(-66)"/><rect class="cls-2" x="60.87" y="28.29" width="2.79" height="2.79" transform="translate(9.82 74.49) rotate(-66)"/><rect class="cls-2" x="57.05" y="26.59" width="2.79" height="2.79" transform="translate(9.11 70) rotate(-66)"/><rect class="cls-2" x="62.57" y="24.47" width="2.79" height="2.79" transform="translate(14.32 73.78) rotate(-66)"/><rect class="cls-2" x="55.77" y="39.75" width="2.79" height="2.79" transform="translate(-3.67 76.63) rotate(-66)"/><rect class="cls-2" x="51.95" y="38.05" width="2.79" height="2.79" transform="translate(-4.38 72.13) rotate(-66)"/><rect class="cls-2" x="57.47" y="35.93" width="2.79" height="2.79" transform="translate(0.83 75.92) rotate(-66)"/><rect class="cls-2" x="53.65" y="34.23" width="2.79" height="2.79" transform="translate(0.11 71.42) rotate(-66)"/><rect class="cls-2" x="59.17" y="32.11" width="2.79" height="2.79" transform="translate(5.33 75.21) rotate(-66)"/><rect class="cls-2" x="55.35" y="30.41" width="2.79" height="2.79" transform="translate(4.61 70.71) rotate(-66)"/><rect class="cls-2" x="60.87" y="28.29" width="2.79" height="2.79" transform="translate(9.82 74.49) rotate(-66)"/><rect class="cls-2" x="57.05" y="26.59" width="2.79" height="2.79" transform="translate(9.11 70) rotate(-66)"/><rect class="cls-2" x="62.57" y="24.47" width="2.79" height="2.79" transform="translate(14.32 73.78) rotate(-66)"/><rect class="cls-2" x="48.13" y="36.35" width="2.79" height="2.79" transform="translate(-5.1 67.63) rotate(-66)"/><rect class="cls-2" x="44.31" y="34.65" width="2.79" height="2.79" transform="translate(-5.81 63.14) rotate(-66)"/><rect class="cls-2" x="49.83" y="32.53" width="2.79" height="2.79" transform="translate(-0.6 66.92) rotate(-66)"/><rect class="cls-2" x="46.01" y="30.83" width="2.79" height="2.79" transform="translate(-1.31 62.42) rotate(-66)"/><rect class="cls-2" x="51.53" y="28.71" width="2.79" height="2.79" transform="translate(3.9 66.21) rotate(-66)"/><rect class="cls-2" x="47.71" y="27.01" width="2.79" height="2.79" transform="translate(3.19 61.71) rotate(-66)"/><rect class="cls-2" x="53.23" y="24.89" width="2.79" height="2.79" transform="translate(8.4 65.5) rotate(-66)"/><rect class="cls-2" x="49.41" y="23.19" width="2.79" height="2.79" transform="translate(7.69 61) rotate(-66)"/><rect class="cls-2" x="54.93" y="21.07" width="2.79" height="2.79" transform="translate(12.9 64.78) rotate(-66)"/><rect class="cls-2" x="51.12" y="19.37" width="2.79" height="2.79" transform="translate(12.18 60.29) rotate(-66)"/><rect class="cls-2" x="52.82" y="15.55" width="2.79" height="2.79" transform="translate(16.68 59.57) rotate(-66)"/><rect class="cls-2" x="48.13" y="36.35" width="2.79" height="2.79" transform="translate(-5.1 67.63) rotate(-66)"/><rect class="cls-2" x="44.31" y="34.65" width="2.79" height="2.79" transform="translate(-5.81 63.14) rotate(-66)"/><rect class="cls-2" x="49.83" y="32.53" width="2.79" height="2.79" transform="translate(-0.6 66.92) rotate(-66)"/><rect class="cls-2" x="46.01" y="30.83" width="2.79" height="2.79" transform="translate(-1.31 62.42) rotate(-66)"/><rect class="cls-2" x="51.53" y="28.71" width="2.79" height="2.79" transform="translate(3.9 66.21) rotate(-66)"/><rect class="cls-2" x="47.71" y="27.01" width="2.79" height="2.79" transform="translate(3.19 61.71) rotate(-66)"/><rect class="cls-2" x="53.23" y="24.89" width="2.79" height="2.79" transform="translate(8.4 65.5) rotate(-66)"/><rect class="cls-2" x="49.41" y="23.19" width="2.79" height="2.79" transform="translate(7.69 61) rotate(-66)"/><rect class="cls-2" x="54.93" y="21.07" width="2.79" height="2.79" transform="translate(12.9 64.78) rotate(-66)"/><rect class="cls-2" x="51.12" y="19.37" width="2.79" height="2.79" transform="translate(12.18 60.29) rotate(-66)"/><rect class="cls-2" x="52.82" y="15.55" width="2.79" height="2.79" transform="translate(16.68 59.57) rotate(-66)"/><rect class="cls-3" x="37.39" y="10.42" width="33.52" height="33.67" rx="4.32" transform="matrix(0.21, -0.98, 0.98, 0.21, 16.23, 74.55)"/><rect class="cls-2" x="60.74" y="38.16" width="2.79" height="2.79" transform="translate(10.53 92.11) rotate(-78)"/><rect class="cls-2" x="56.65" y="37.29" width="2.79" height="2.79" transform="translate(8.14 87.42) rotate(-78)"/><rect class="cls-2" x="61.61" y="34.07" width="2.79" height="2.79" transform="matrix(0.21, -0.98, 0.98, 0.21, 15.22, 89.72)"/><rect class="cls-2" x="57.52" y="33.2" width="2.79" height="2.79" transform="translate(12.83 85.03) rotate(-78)"/><rect class="cls-2" x="62.48" y="29.98" width="2.79" height="2.79" transform="translate(19.91 87.33) rotate(-78)"/><rect class="cls-2" x="58.39" y="29.11" width="2.79" height="2.79" transform="translate(17.52 82.64) rotate(-78)"/><rect class="cls-2" x="63.35" y="25.89" width="2.79" height="2.79" transform="matrix(0.21, -0.98, 0.98, 0.21, 24.6, 84.94)"/><rect class="cls-2" x="59.26" y="25.02" width="2.79" height="2.79" transform="translate(22.21 80.25) rotate(-78)"/><rect class="cls-2" x="64.22" y="21.8" width="2.79" height="2.79" transform="translate(29.29 82.55) rotate(-78)"/><rect class="cls-2" x="65.09" y="17.71" width="2.79" height="2.79" transform="translate(33.97 80.16) rotate(-78)"/><rect class="cls-2" x="61" y="16.84" width="2.79" height="2.79" transform="translate(31.59 75.47) rotate(-78)"/><rect class="cls-2" x="60.74" y="38.16" width="2.79" height="2.79" transform="translate(10.53 92.11) rotate(-78)"/><rect class="cls-2" x="56.65" y="37.29" width="2.79" height="2.79" transform="translate(8.14 87.42) rotate(-78)"/><rect class="cls-2" x="61.61" y="34.07" width="2.79" height="2.79" transform="matrix(0.21, -0.98, 0.98, 0.21, 15.22, 89.72)"/><rect class="cls-2" x="57.52" y="33.2" width="2.79" height="2.79" transform="translate(12.83 85.03) rotate(-78)"/><rect class="cls-2" x="62.48" y="29.98" width="2.79" height="2.79" transform="translate(19.91 87.33) rotate(-78)"/><rect class="cls-2" x="58.39" y="29.11" width="2.79" height="2.79" transform="translate(17.52 82.64) rotate(-78)"/><rect class="cls-2" x="63.35" y="25.89" width="2.79" height="2.79" transform="matrix(0.21, -0.98, 0.98, 0.21, 24.6, 84.94)"/><rect class="cls-2" x="59.26" y="25.02" width="2.79" height="2.79" transform="translate(22.21 80.25) rotate(-78)"/><rect class="cls-2" x="64.22" y="21.8" width="2.79" height="2.79" transform="translate(29.29 82.55) rotate(-78)"/><rect class="cls-2" x="65.09" y="17.71" width="2.79" height="2.79" transform="translate(33.97 80.16) rotate(-78)"/><rect class="cls-2" x="61" y="16.84" width="2.79" height="2.79" transform="translate(31.59 75.47) rotate(-78)"/><rect class="cls-2" x="52.56" y="36.42" width="2.79" height="2.79" transform="translate(5.75 82.73) rotate(-78)"/><rect class="cls-2" x="48.47" y="35.55" width="2.79" height="2.79" transform="translate(3.36 78.04) rotate(-78)"/><rect class="cls-2" x="53.43" y="32.33" width="2.79" height="2.79" transform="translate(10.44 80.34) rotate(-78)"/><rect class="cls-2" x="49.34" y="31.46" width="2.79" height="2.79" transform="translate(8.05 75.65) rotate(-78)"/><rect class="cls-2" x="54.3" y="28.24" width="2.79" height="2.79" transform="translate(15.13 77.95) rotate(-78)"/><rect class="cls-2" x="50.21" y="27.37" width="2.79" height="2.79" transform="translate(12.74 73.26) rotate(-78)"/><rect class="cls-2" x="55.17" y="24.15" width="2.79" height="2.79" transform="translate(19.82 75.56) rotate(-78)"/><rect class="cls-2" x="51.08" y="23.28" width="2.79" height="2.79" transform="translate(17.43 70.87) rotate(-78)"/><rect class="cls-2" x="56.04" y="20.06" width="2.79" height="2.79" transform="translate(24.51 73.17) rotate(-78)"/><rect class="cls-2" x="52.56" y="36.42" width="2.79" height="2.79" transform="translate(5.75 82.73) rotate(-78)"/><rect class="cls-2" x="48.47" y="35.55" width="2.79" height="2.79" transform="translate(3.36 78.04) rotate(-78)"/><rect class="cls-2" x="53.43" y="32.33" width="2.79" height="2.79" transform="translate(10.44 80.34) rotate(-78)"/><rect class="cls-2" x="49.34" y="31.46" width="2.79" height="2.79" transform="translate(8.05 75.65) rotate(-78)"/><rect class="cls-2" x="54.3" y="28.24" width="2.79" height="2.79" transform="translate(15.13 77.95) rotate(-78)"/><rect class="cls-2" x="50.21" y="27.37" width="2.79" height="2.79" transform="translate(12.74 73.26) rotate(-78)"/><rect class="cls-2" x="55.17" y="24.15" width="2.79" height="2.79" transform="translate(19.82 75.56) rotate(-78)"/><rect class="cls-2" x="51.08" y="23.28" width="2.79" height="2.79" transform="translate(17.43 70.87) rotate(-78)"/><rect class="cls-2" x="56.04" y="20.06" width="2.79" height="2.79" transform="translate(24.51 73.17) rotate(-78)"/><rect class="cls-2" x="44.38" y="34.68" width="2.79" height="2.79" transform="matrix(0.21, -0.98, 0.98, 0.21, 0.97, 73.35)"/><rect class="cls-2" x="40.29" y="33.81" width="2.79" height="2.79" transform="translate(-1.42 68.66) rotate(-78)"/><rect class="cls-2" x="45.25" y="30.59" width="2.79" height="2.79" transform="translate(5.66 70.96) rotate(-78)"/><rect class="cls-2" x="41.16" y="29.72" width="2.79" height="2.79" transform="translate(3.27 66.27) rotate(-78)"/><rect class="cls-2" x="46.12" y="26.5" width="2.79" height="2.79" transform="translate(10.35 68.57) rotate(-78)"/><rect class="cls-2" x="42.03" y="25.63" width="2.79" height="2.79" transform="translate(7.96 63.88) rotate(-78)"/><rect class="cls-2" x="46.99" y="22.41" width="2.79" height="2.79" transform="translate(15.04 66.18) rotate(-78)"/><rect class="cls-2" x="42.9" y="21.54" width="2.79" height="2.79" transform="translate(12.65 61.49) rotate(-78)"/><rect class="cls-2" x="47.86" y="18.32" width="2.79" height="2.79" transform="translate(19.73 63.79) rotate(-78)"/><rect class="cls-2" x="43.77" y="17.45" width="2.79" height="2.79" transform="translate(17.34 59.11) rotate(-78)"/><rect class="cls-2" x="44.64" y="13.36" width="2.79" height="2.79" transform="matrix(0.21, -0.98, 0.98, 0.21, 22.03, 56.72)"/><rect class="cls-2" x="44.38" y="34.68" width="2.79" height="2.79" transform="matrix(0.21, -0.98, 0.98, 0.21, 0.97, 73.35)"/><rect class="cls-2" x="40.29" y="33.81" width="2.79" height="2.79" transform="translate(-1.42 68.66) rotate(-78)"/><rect class="cls-2" x="45.25" y="30.59" width="2.79" height="2.79" transform="translate(5.66 70.96) rotate(-78)"/><rect class="cls-2" x="41.16" y="29.72" width="2.79" height="2.79" transform="translate(3.27 66.27) rotate(-78)"/><rect class="cls-2" x="46.12" y="26.5" width="2.79" height="2.79" transform="translate(10.35 68.57) rotate(-78)"/><rect class="cls-2" x="42.03" y="25.63" width="2.79" height="2.79" transform="translate(7.96 63.88) rotate(-78)"/><rect class="cls-2" x="46.99" y="22.41" width="2.79" height="2.79" transform="translate(15.04 66.18) rotate(-78)"/><rect class="cls-2" x="42.9" y="21.54" width="2.79" height="2.79" transform="translate(12.65 61.49) rotate(-78)"/><rect class="cls-2" x="47.86" y="18.32" width="2.79" height="2.79" transform="translate(19.73 63.79) rotate(-78)"/><rect class="cls-2" x="43.77" y="17.45" width="2.79" height="2.79" transform="translate(17.34 59.11) rotate(-78)"/><rect class="cls-2" x="44.64" y="13.36" width="2.79" height="2.79" transform="matrix(0.21, -0.98, 0.98, 0.21, 22.03, 56.72)"/><rect class="cls-4" x="29.21" y="7.79" width="33.67" height="33.52" rx="4.32"/><rect class="cls-2" x="55.02" y="33.53" width="2.79" height="2.79"/><rect class="cls-2" x="50.84" y="33.53" width="2.79" height="2.79"/><rect class="cls-2" x="55.02" y="29.35" width="2.79" height="2.79"/><rect class="cls-2" x="50.84" y="29.35" width="2.79" height="2.79"/><rect class="cls-2" x="55.02" y="25.17" width="2.79" height="2.79"/><rect class="cls-2" x="50.84" y="25.17" width="2.79" height="2.79"/><rect class="cls-2" x="55.02" y="20.99" width="2.79" height="2.79"/><rect class="cls-2" x="50.84" y="20.99" width="2.79" height="2.79"/><rect class="cls-2" x="55.02" y="16.8" width="2.79" height="2.79"/><rect class="cls-2" x="50.84" y="12.62" width="2.79" height="2.79"/><rect class="cls-2" x="55.02" y="33.53" width="2.79" height="2.79"/><rect class="cls-2" x="50.84" y="33.53" width="2.79" height="2.79"/><rect class="cls-2" x="55.02" y="29.35" width="2.79" height="2.79"/><rect class="cls-2" x="50.84" y="29.35" width="2.79" height="2.79"/><rect class="cls-2" x="55.02" y="25.17" width="2.79" height="2.79"/><rect class="cls-2" x="50.84" y="25.17" width="2.79" height="2.79"/><rect class="cls-2" x="55.02" y="20.99" width="2.79" height="2.79"/><rect class="cls-2" x="50.84" y="20.99" width="2.79" height="2.79"/><rect class="cls-2" x="55.02" y="16.8" width="2.79" height="2.79"/><rect class="cls-2" x="50.84" y="12.62" width="2.79" height="2.79"/><rect class="cls-2" x="46.66" y="33.53" width="2.79" height="2.79"/><rect class="cls-2" x="42.48" y="33.53" width="2.79" height="2.79"/><rect class="cls-2" x="46.66" y="29.35" width="2.79" height="2.79"/><rect class="cls-2" x="42.48" y="29.35" width="2.79" height="2.79"/><rect class="cls-2" x="46.66" y="25.17" width="2.79" height="2.79"/><rect class="cls-2" x="42.48" y="25.17" width="2.79" height="2.79"/><rect class="cls-2" x="46.66" y="20.99" width="2.79" height="2.79"/><rect class="cls-2" x="42.48" y="20.99" width="2.79" height="2.79"/><rect class="cls-2" x="46.66" y="16.8" width="2.79" height="2.79"/><rect class="cls-2" x="46.66" y="33.53" width="2.79" height="2.79"/><rect class="cls-2" x="42.48" y="33.53" width="2.79" height="2.79"/><rect class="cls-2" x="46.66" y="29.35" width="2.79" height="2.79"/><rect class="cls-2" x="42.48" y="29.35" width="2.79" height="2.79"/><rect class="cls-2" x="46.66" y="25.17" width="2.79" height="2.79"/><rect class="cls-2" x="42.48" y="25.17" width="2.79" height="2.79"/><rect class="cls-2" x="46.66" y="20.99" width="2.79" height="2.79"/><rect class="cls-2" x="42.48" y="20.99" width="2.79" height="2.79"/><rect class="cls-2" x="46.66" y="16.8" width="2.79" height="2.79"/><rect class="cls-2" x="38.3" y="33.53" width="2.79" height="2.79"/><rect class="cls-2" x="34.12" y="33.53" width="2.79" height="2.79"/><rect class="cls-2" x="38.3" y="29.35" width="2.79" height="2.79"/><rect class="cls-2" x="34.12" y="29.35" width="2.79" height="2.79"/><rect class="cls-2" x="38.3" y="25.17" width="2.79" height="2.79"/><rect class="cls-2" x="34.12" y="25.17" width="2.79" height="2.79"/><rect class="cls-2" x="38.3" y="20.99" width="2.79" height="2.79"/><rect class="cls-2" x="34.12" y="20.99" width="2.79" height="2.79"/><rect class="cls-2" x="38.3" y="16.8" width="2.79" height="2.79"/><rect class="cls-2" x="34.12" y="16.8" width="2.79" height="2.79"/><rect class="cls-2" x="34.12" y="12.62" width="2.79" height="2.79"/><rect class="cls-2" x="38.3" y="33.53" width="2.79" height="2.79"/><rect class="cls-2" x="34.12" y="33.53" width="2.79" height="2.79"/><rect class="cls-2" x="38.3" y="29.35" width="2.79" height="2.79"/><rect class="cls-2" x="34.12" y="29.35" width="2.79" height="2.79"/><rect class="cls-2" x="38.3" y="25.17" width="2.79" height="2.79"/><rect class="cls-2" x="34.12" y="25.17" width="2.79" height="2.79"/><rect class="cls-2" x="38.3" y="20.99" width="2.79" height="2.79"/><rect class="cls-2" x="34.12" y="20.99" width="2.79" height="2.79"/><rect class="cls-2" x="38.3" y="16.8" width="2.79" height="2.79"/><rect class="cls-2" x="34.12" y="16.8" width="2.79" height="2.79"/><rect class="cls-2" x="34.12" y="12.62" width="2.79" height="2.79"/><path class="cls-5" d="M82.54,34.48l-5.29-5.65A2.5,2.5,0,0,0,75,27.4H24.39a2.52,2.52,0,0,0-2.52,2.52V90.41a2.45,2.45,0,0,0,.2,1,2.4,2.4,0,0,0,.69.92v0l5.78,5.78a2.52,2.52,0,0,0,1.78.74H79.22a4,4,0,0,0,4-4V36.2A2.51,2.51,0,0,0,82.54,34.48Z"/><path class="cls-6" d="M76.92,37.48,63.2,62.87,41.63,91.71H23l-.21.63,5.78,5.78a2.52,2.52,0,0,0,1.78.74H79.22a4,4,0,0,0,4-4V44.21Z"/><rect class="cls-6" x="21.87" y="27.4" width="55.63" height="65.54" rx="2.52"/><path class="cls-2" d="M21.87,38.27V90.41a2.52,2.52,0,0,0,2.52,2.52H75a2.52,2.52,0,0,0,2.52-2.52V38.27Z"/><path class="cls-7" d="M47.58,52.65V71.78a4.6,4.6,0,0,1-1.42,3.39,4.67,4.67,0,0,1-3.39,1.39A4.76,4.76,0,0,1,38,71.78V52.65a1.62,1.62,0,0,1,1.6-1.6H46a1.64,1.64,0,0,1,1.6,1.6Zm-3.19,4.78V54.24H41.2v3.19Zm0,6.38V60.62H41.2v3.19ZM42.79,73a1.15,1.15,0,0,0,.85-.34,1.19,1.19,0,0,0,.35-.85,1.17,1.17,0,0,0-.35-.85,1.2,1.2,0,0,0-1.69,0,1.13,1.13,0,0,0-.35.85A1.18,1.18,0,0,0,42.79,73Zm19.08-6a1.53,1.53,0,0,1,1.13.47,1.54,1.54,0,0,1,.47,1.12V75a1.6,1.6,0,0,1-1.6,1.59H46.93l.35-.25L56.54,67Zm-2.19-7.63a1.53,1.53,0,0,1,.45,1.12,1.5,1.5,0,0,1-.45,1.12L49.12,72.23l.05-.45V58.63l3.74-3.74a1.5,1.5,0,0,1,2.24,0Z"/><path class="cls-1" d="M85.58,6.21c.36-1,.94-1,1.29,0l.88,2.58a4.59,4.59,0,0,0,2.54,2.54l2.58.88c1,.36,1,.94,0,1.29l-2.58.88a4.62,4.62,0,0,0-2.54,2.54l-.88,2.58c-.35,1-.93,1-1.29,0l-.88-2.58a4.57,4.57,0,0,0-2.53-2.54l-2.59-.88c-1-.35-1-.93,0-1.29l2.59-.88A4.54,4.54,0,0,0,84.7,8.79Z"/><path class="cls-1" d="M93.66,25.46c.35-1.05.93-1.05,1.29,0l.19.55a4.6,4.6,0,0,0,2.53,2.54l.56.18c1,.36,1,.94,0,1.29l-.56.19a4.6,4.6,0,0,0-2.53,2.54L95,33.3c-.36,1-.94,1-1.29,0l-.19-.55a4.59,4.59,0,0,0-2.54-2.54L90.38,30c-1-.35-1-.93,0-1.29l.55-.18A4.59,4.59,0,0,0,93.47,26Z"/></svg>