<svg id="art" xmlns="http://www.w3.org/2000/svg" viewBox="0 0 108 108"><defs><style>.cls-1{fill:#8f81d9;}.cls-2{fill:#7362d0;}.cls-3{fill:#8f81d9;}.cls-4{fill:#8f81d9;}.cls-5{fill:#504491;}.cls-6{fill:#fff;}.cls-7{fill:#713106;}.cls-8{fill:#7362d0;}</style></defs><title>Create-catalog</title><rect class="cls-1" x="42.79" y="30.72" width="52.14" height="52.38" rx="6.72" transform="translate(-1.13 112.43) rotate(-78)"/><rect class="cls-2" x="79.11" y="73.88" width="4.34" height="4.34" transform="translate(-10 139.74) rotate(-78)"/><rect class="cls-2" x="72.75" y="72.52" width="4.34" height="4.34" transform="translate(-13.72 132.44) rotate(-78)"/><rect class="cls-2" x="80.46" y="67.51" width="4.34" height="4.34" transform="translate(-2.71 136.02) rotate(-78)"/><rect class="cls-2" x="74.1" y="66.16" width="4.34" height="4.34" transform="translate(-6.43 128.73) rotate(-78)"/><rect class="cls-2" x="81.82" y="61.15" width="4.34" height="4.34" transform="translate(4.58 132.3) rotate(-78)"/><rect class="cls-2" x="75.45" y="59.8" width="4.34" height="4.34" transform="translate(0.87 125.01) rotate(-78)"/><rect class="cls-2" x="83.17" y="54.79" width="4.34" height="4.34" transform="translate(11.88 128.59) rotate(-78)"/><rect class="cls-2" x="76.81" y="53.44" width="4.34" height="4.34" transform="translate(8.16 121.29) rotate(-78)"/><rect class="cls-2" x="84.52" y="48.43" width="4.34" height="4.34" transform="translate(19.17 124.87) rotate(-78)"/><rect class="cls-2" x="85.87" y="42.07" width="4.34" height="4.34" transform="translate(26.47 121.15) rotate(-78)"/><rect class="cls-2" x="79.51" y="40.72" width="4.34" height="4.34" transform="translate(22.75 113.86) rotate(-78)"/><rect class="cls-2" x="79.11" y="73.88" width="4.34" height="4.34" transform="translate(-10 139.74) rotate(-78)"/><rect class="cls-2" x="72.75" y="72.52" width="4.34" height="4.34" transform="translate(-13.72 132.44) rotate(-78)"/><rect class="cls-2" x="80.46" y="67.51" width="4.34" height="4.34" transform="translate(-2.71 136.02) rotate(-78)"/><rect class="cls-2" x="74.1" y="66.16" width="4.34" height="4.34" transform="translate(-6.43 128.73) rotate(-78)"/><rect class="cls-2" x="81.82" y="61.15" width="4.34" height="4.34" transform="translate(4.58 132.3) rotate(-78)"/><rect class="cls-2" x="75.45" y="59.8" width="4.34" height="4.34" transform="translate(0.87 125.01) rotate(-78)"/><rect class="cls-2" x="83.17" y="54.79" width="4.34" height="4.34" transform="translate(11.88 128.59) rotate(-78)"/><rect class="cls-2" x="76.81" y="53.44" width="4.34" height="4.34" transform="translate(8.16 121.29) rotate(-78)"/><rect class="cls-2" x="84.52" y="48.43" width="4.34" height="4.34" transform="translate(19.17 124.87) rotate(-78)"/><rect class="cls-2" x="85.87" y="42.07" width="4.34" height="4.34" transform="translate(26.47 121.15) rotate(-78)"/><rect class="cls-2" x="79.51" y="40.72" width="4.34" height="4.34" transform="translate(22.75 113.86) rotate(-78)"/><rect class="cls-2" x="66.39" y="71.17" width="4.34" height="4.34" transform="translate(-17.44 125.15) rotate(-78)"/><rect class="cls-2" x="60.03" y="69.82" width="4.34" height="4.34" transform="translate(-21.15 117.86) rotate(-78)"/><rect class="cls-2" x="67.74" y="64.81" width="4.34" height="4.34" transform="translate(-10.14 121.43) rotate(-78)"/><rect class="cls-2" x="61.38" y="63.46" width="4.34" height="4.34" transform="translate(-13.86 114.14) rotate(-78)"/><rect class="cls-2" x="69.09" y="58.45" width="4.34" height="4.34" transform="translate(-2.85 117.72) rotate(-78)"/><rect class="cls-2" x="62.73" y="57.1" width="4.34" height="4.34" transform="translate(-6.56 110.42) rotate(-78)"/><rect class="cls-2" x="70.44" y="52.09" width="4.34" height="4.34" transform="translate(4.45 114) rotate(-78)"/><rect class="cls-2" x="64.08" y="50.73" width="4.34" height="4.34" transform="translate(0.73 106.71) rotate(-78)"/><rect class="cls-2" x="71.8" y="45.73" width="4.34" height="4.34" transform="translate(11.74 110.28) rotate(-78)"/><rect class="cls-2" x="66.39" y="71.17" width="4.34" height="4.34" transform="translate(-17.44 125.15) rotate(-78)"/><rect class="cls-2" x="60.03" y="69.82" width="4.34" height="4.34" transform="translate(-21.15 117.86) rotate(-78)"/><rect class="cls-2" x="67.74" y="64.81" width="4.34" height="4.34" transform="translate(-10.14 121.43) rotate(-78)"/><rect class="cls-2" x="61.38" y="63.46" width="4.34" height="4.34" transform="translate(-13.86 114.14) rotate(-78)"/><rect class="cls-2" x="69.09" y="58.45" width="4.34" height="4.34" transform="translate(-2.85 117.72) rotate(-78)"/><rect class="cls-2" x="62.73" y="57.1" width="4.34" height="4.34" transform="translate(-6.56 110.42) rotate(-78)"/><rect class="cls-2" x="70.44" y="52.09" width="4.34" height="4.34" transform="translate(4.45 114) rotate(-78)"/><rect class="cls-2" x="64.08" y="50.73" width="4.34" height="4.34" transform="translate(0.73 106.71) rotate(-78)"/><rect class="cls-2" x="71.8" y="45.73" width="4.34" height="4.34" transform="translate(11.74 110.28) rotate(-78)"/><rect class="cls-2" x="53.66" y="68.47" width="4.34" height="4.34" transform="translate(-24.87 110.56) rotate(-78)"/><rect class="cls-2" x="47.3" y="67.12" width="4.34" height="4.34" transform="translate(-28.58 103.27) rotate(-78)"/><rect class="cls-2" x="55.02" y="62.11" width="4.34" height="4.34" transform="translate(-17.57 106.85) rotate(-78)"/><rect class="cls-2" x="48.65" y="60.75" width="4.34" height="4.34" transform="translate(-21.29 99.55) rotate(-78)"/><rect class="cls-2" x="56.37" y="55.74" width="4.34" height="4.34" transform="translate(-10.28 103.13) rotate(-78)"/><rect class="cls-2" x="50.01" y="54.39" width="4.34" height="4.34" transform="translate(-14 95.84) rotate(-78)"/><rect class="cls-2" x="57.72" y="49.38" width="4.34" height="4.34" transform="translate(-2.99 99.41) rotate(-78)"/><rect class="cls-2" x="51.36" y="48.03" width="4.34" height="4.34" transform="translate(-6.7 92.12) rotate(-78)"/><rect class="cls-2" x="59.07" y="43.02" width="4.34" height="4.34" transform="translate(4.31 95.7) rotate(-78)"/><rect class="cls-2" x="52.71" y="41.67" width="4.34" height="4.34" transform="translate(0.59 88.4) rotate(-78)"/><rect class="cls-2" x="54.06" y="35.31" width="4.34" height="4.34" transform="translate(7.88 84.69) rotate(-78)"/><rect class="cls-2" x="53.66" y="68.47" width="4.34" height="4.34" transform="translate(-24.87 110.56) rotate(-78)"/><rect class="cls-2" x="47.3" y="67.12" width="4.34" height="4.34" transform="translate(-28.58 103.27) rotate(-78)"/><rect class="cls-2" x="55.02" y="62.11" width="4.34" height="4.34" transform="translate(-17.57 106.85) rotate(-78)"/><rect class="cls-2" x="48.65" y="60.75" width="4.34" height="4.34" transform="translate(-21.29 99.55) rotate(-78)"/><rect class="cls-2" x="56.37" y="55.74" width="4.34" height="4.34" transform="translate(-10.28 103.13) rotate(-78)"/><rect class="cls-2" x="50.01" y="54.39" width="4.34" height="4.34" transform="translate(-14 95.84) rotate(-78)"/><rect class="cls-2" x="57.72" y="49.38" width="4.34" height="4.34" transform="translate(-2.99 99.41) rotate(-78)"/><rect class="cls-2" x="51.36" y="48.03" width="4.34" height="4.34" transform="translate(-6.7 92.12) rotate(-78)"/><rect class="cls-2" x="59.07" y="43.02" width="4.34" height="4.34" transform="translate(4.31 95.7) rotate(-78)"/><rect class="cls-2" x="52.71" y="41.67" width="4.34" height="4.34" transform="translate(0.59 88.4) rotate(-78)"/><rect class="cls-2" x="54.06" y="35.31" width="4.34" height="4.34" transform="translate(7.88 84.69) rotate(-78)"/><rect class="cls-3" x="28.66" y="25.24" width="52.38" height="52.14" rx="6.72"/><rect class="cls-2" x="68.82" y="65.28" width="4.34" height="4.34"/><rect class="cls-2" x="62.31" y="65.28" width="4.34" height="4.34"/><rect class="cls-2" x="68.82" y="58.77" width="4.34" height="4.34"/><rect class="cls-2" x="62.31" y="58.77" width="4.34" height="4.34"/><rect class="cls-2" x="68.82" y="52.27" width="4.34" height="4.34"/><rect class="cls-2" x="62.31" y="52.27" width="4.34" height="4.34"/><rect class="cls-2" x="68.82" y="45.76" width="4.34" height="4.34"/><rect class="cls-2" x="62.31" y="45.76" width="4.34" height="4.34"/><rect class="cls-2" x="68.82" y="39.26" width="4.34" height="4.34"/><rect class="cls-2" x="62.31" y="32.76" width="4.34" height="4.34"/><rect class="cls-2" x="68.82" y="65.28" width="4.34" height="4.34"/><rect class="cls-2" x="62.31" y="65.28" width="4.34" height="4.34"/><rect class="cls-2" x="68.82" y="58.77" width="4.34" height="4.34"/><rect class="cls-2" x="62.31" y="58.77" width="4.34" height="4.34"/><rect class="cls-2" x="68.82" y="52.27" width="4.34" height="4.34"/><rect class="cls-2" x="62.31" y="52.27" width="4.34" height="4.34"/><rect class="cls-2" x="68.82" y="45.76" width="4.34" height="4.34"/><rect class="cls-2" x="62.31" y="45.76" width="4.34" height="4.34"/><rect class="cls-2" x="68.82" y="39.26" width="4.34" height="4.34"/><rect class="cls-2" x="62.31" y="32.76" width="4.34" height="4.34"/><rect class="cls-2" x="55.81" y="65.28" width="4.34" height="4.34"/><rect class="cls-2" x="49.31" y="65.28" width="4.34" height="4.34"/><rect class="cls-2" x="55.81" y="58.77" width="4.34" height="4.34"/><rect class="cls-2" x="49.31" y="58.77" width="4.34" height="4.34"/><rect class="cls-2" x="55.81" y="52.27" width="4.34" height="4.34"/><rect class="cls-2" x="49.31" y="52.27" width="4.34" height="4.34"/><rect class="cls-2" x="55.81" y="45.76" width="4.34" height="4.34"/><rect class="cls-2" x="49.31" y="45.76" width="4.34" height="4.34"/><rect class="cls-2" x="55.81" y="39.26" width="4.34" height="4.34"/><rect class="cls-2" x="55.81" y="65.28" width="4.34" height="4.34"/><rect class="cls-2" x="49.31" y="65.28" width="4.34" height="4.34"/><rect class="cls-2" x="55.81" y="58.77" width="4.34" height="4.34"/><rect class="cls-2" x="49.31" y="58.77" width="4.34" height="4.34"/><rect class="cls-2" x="55.81" y="52.27" width="4.34" height="4.34"/><rect class="cls-2" x="49.31" y="52.27" width="4.34" height="4.34"/><rect class="cls-2" x="55.81" y="45.76" width="4.34" height="4.34"/><rect class="cls-2" x="49.31" y="45.76" width="4.34" height="4.34"/><rect class="cls-2" x="55.81" y="39.26" width="4.34" height="4.34"/><rect class="cls-2" x="42.8" y="65.28" width="4.34" height="4.34"/><rect class="cls-2" x="36.3" y="65.28" width="4.34" height="4.34"/><rect class="cls-2" x="42.8" y="58.77" width="4.34" height="4.34"/><rect class="cls-2" x="36.3" y="58.77" width="4.34" height="4.34"/><rect class="cls-2" x="42.8" y="52.27" width="4.34" height="4.34"/><rect class="cls-2" x="36.3" y="52.27" width="4.34" height="4.34"/><rect class="cls-2" x="42.8" y="45.76" width="4.34" height="4.34"/><rect class="cls-2" x="36.3" y="45.76" width="4.34" height="4.34"/><rect class="cls-2" x="42.8" y="39.26" width="4.34" height="4.34"/><rect class="cls-2" x="36.3" y="39.26" width="4.34" height="4.34"/><rect class="cls-2" x="36.3" y="32.76" width="4.34" height="4.34"/><rect class="cls-2" x="42.8" y="65.28" width="4.34" height="4.34"/><rect class="cls-2" x="36.3" y="65.28" width="4.34" height="4.34"/><rect class="cls-2" x="42.8" y="58.77" width="4.34" height="4.34"/><rect class="cls-2" x="36.3" y="58.77" width="4.34" height="4.34"/><rect class="cls-2" x="42.8" y="52.27" width="4.34" height="4.34"/><rect class="cls-2" x="36.3" y="52.27" width="4.34" height="4.34"/><rect class="cls-2" x="42.8" y="45.76" width="4.34" height="4.34"/><rect class="cls-2" x="36.3" y="45.76" width="4.34" height="4.34"/><rect class="cls-2" x="42.8" y="39.26" width="4.34" height="4.34"/><rect class="cls-2" x="36.3" y="39.26" width="4.34" height="4.34"/><rect class="cls-2" x="36.3" y="32.76" width="4.34" height="4.34"/><rect class="cls-4" x="14.38" y="32.63" width="52.38" height="52.14" rx="6.72" transform="translate(-16.15 15.41) rotate(-18)"/><rect class="cls-2" x="58.73" y="66.89" width="4.34" height="4.34" transform="translate(-18.36 22.2) rotate(-18)"/><rect class="cls-2" x="52.55" y="68.9" width="4.34" height="4.34" transform="translate(-19.28 20.39) rotate(-18)"/><rect class="cls-2" x="56.72" y="60.7" width="4.34" height="4.34" transform="translate(-16.55 21.28) rotate(-18)"/><rect class="cls-2" x="50.54" y="62.71" width="4.34" height="4.34" transform="translate(-17.47 19.46) rotate(-18)"/><rect class="cls-2" x="54.71" y="54.52" width="4.34" height="4.34" transform="translate(-14.73 20.35) rotate(-18)"/><rect class="cls-2" x="48.53" y="56.53" width="4.34" height="4.34" transform="translate(-15.66 18.54) rotate(-18)"/><rect class="cls-2" x="52.7" y="48.33" width="4.34" height="4.34" transform="translate(-12.92 19.43) rotate(-18)"/><rect class="cls-2" x="46.52" y="50.34" width="4.34" height="4.34" transform="translate(-13.84 17.61) rotate(-18)"/><rect class="cls-2" x="50.69" y="42.15" width="4.34" height="4.34" transform="translate(-11.11 18.5) rotate(-18)"/><rect class="cls-2" x="48.68" y="35.96" width="4.34" height="4.34" transform="translate(-9.29 17.58) rotate(-18)"/><rect class="cls-2" x="42.5" y="37.97" width="4.34" height="4.34" transform="translate(-10.22 15.77) rotate(-18)"/><rect class="cls-2" x="58.73" y="66.89" width="4.34" height="4.34" transform="translate(-18.36 22.2) rotate(-18)"/><rect class="cls-2" x="52.55" y="68.9" width="4.34" height="4.34" transform="translate(-19.28 20.39) rotate(-18)"/><rect class="cls-2" x="56.72" y="60.7" width="4.34" height="4.34" transform="translate(-16.55 21.28) rotate(-18)"/><rect class="cls-2" x="50.54" y="62.71" width="4.34" height="4.34" transform="translate(-17.47 19.46) rotate(-18)"/><rect class="cls-2" x="54.71" y="54.52" width="4.34" height="4.34" transform="translate(-14.73 20.35) rotate(-18)"/><rect class="cls-2" x="48.53" y="56.53" width="4.34" height="4.34" transform="translate(-15.66 18.54) rotate(-18)"/><rect class="cls-2" x="52.7" y="48.33" width="4.34" height="4.34" transform="translate(-12.92 19.43) rotate(-18)"/><rect class="cls-2" x="46.52" y="50.34" width="4.34" height="4.34" transform="translate(-13.84 17.61) rotate(-18)"/><rect class="cls-2" x="50.69" y="42.15" width="4.34" height="4.34" transform="translate(-11.11 18.5) rotate(-18)"/><rect class="cls-2" x="48.68" y="35.96" width="4.34" height="4.34" transform="translate(-9.29 17.58) rotate(-18)"/><rect class="cls-2" x="42.5" y="37.97" width="4.34" height="4.34" transform="translate(-10.22 15.77) rotate(-18)"/><rect class="cls-2" x="46.36" y="70.91" width="4.34" height="4.34" transform="translate(-20.21 18.57) rotate(-18)"/><rect class="cls-2" x="40.18" y="72.92" width="4.34" height="4.34" transform="translate(-21.13 16.76) rotate(-18)"/><rect class="cls-2" x="44.35" y="64.72" width="4.34" height="4.34" transform="translate(-18.39 17.65) rotate(-18)"/><rect class="cls-2" x="38.17" y="66.73" width="4.34" height="4.34" transform="translate(-19.32 15.84) rotate(-18)"/><rect class="cls-2" x="42.34" y="58.54" width="4.34" height="4.34" transform="translate(-16.58 16.73) rotate(-18)"/><rect class="cls-2" x="36.16" y="60.55" width="4.34" height="4.34" transform="translate(-17.5 14.91) rotate(-18)"/><rect class="cls-2" x="40.33" y="52.35" width="4.34" height="4.34" transform="translate(-14.77 15.8) rotate(-18)"/><rect class="cls-2" x="34.15" y="54.36" width="4.34" height="4.34" transform="translate(-15.69 13.99) rotate(-18)"/><rect class="cls-2" x="38.32" y="46.17" width="4.34" height="4.34" transform="translate(-12.95 14.88) rotate(-18)"/><rect class="cls-2" x="46.36" y="70.91" width="4.34" height="4.34" transform="translate(-20.21 18.57) rotate(-18)"/><rect class="cls-2" x="40.18" y="72.92" width="4.34" height="4.34" transform="translate(-21.13 16.76) rotate(-18)"/><rect class="cls-2" x="44.35" y="64.72" width="4.34" height="4.34" transform="translate(-18.39 17.65) rotate(-18)"/><rect class="cls-2" x="38.17" y="66.73" width="4.34" height="4.34" transform="translate(-19.32 15.84) rotate(-18)"/><rect class="cls-2" x="42.34" y="58.54" width="4.34" height="4.34" transform="translate(-16.58 16.73) rotate(-18)"/><rect class="cls-2" x="36.16" y="60.55" width="4.34" height="4.34" transform="translate(-17.5 14.91) rotate(-18)"/><rect class="cls-2" x="40.33" y="52.35" width="4.34" height="4.34" transform="translate(-14.77 15.8) rotate(-18)"/><rect class="cls-2" x="34.15" y="54.36" width="4.34" height="4.34" transform="translate(-15.69 13.99) rotate(-18)"/><rect class="cls-2" x="38.32" y="46.17" width="4.34" height="4.34" transform="translate(-12.95 14.88) rotate(-18)"/><rect class="cls-2" x="33.99" y="74.93" width="4.34" height="4.34" transform="translate(-22.05 14.95) rotate(-18)"/><rect class="cls-2" x="27.8" y="76.94" width="4.34" height="4.34" transform="translate(-22.98 13.13) rotate(-18)"/><rect class="cls-2" x="31.98" y="68.74" width="4.34" height="4.34" transform="translate(-20.24 14.02) rotate(-18)"/><rect class="cls-2" x="25.79" y="70.75" width="4.34" height="4.34" transform="translate(-21.16 12.21) rotate(-18)"/><rect class="cls-2" x="29.97" y="62.56" width="4.34" height="4.34" transform="translate(-18.43 13.1) rotate(-18)"/><rect class="cls-2" x="23.78" y="64.57" width="4.34" height="4.34" transform="matrix(0.95, -0.31, 0.31, 0.95, -19.35, 11.29)"/><rect class="cls-2" x="27.96" y="56.37" width="4.34" height="4.34" transform="translate(-16.61 12.18) rotate(-18)"/><rect class="cls-2" x="21.78" y="58.38" width="4.34" height="4.34" transform="translate(-17.54 10.36) rotate(-18)"/><rect class="cls-2" x="25.95" y="50.19" width="4.34" height="4.34" transform="translate(-14.8 11.25) rotate(-18)"/><rect class="cls-2" x="19.77" y="52.2" width="4.34" height="4.34" transform="translate(-15.73 9.44) rotate(-18)"/><rect class="cls-2" x="17.76" y="46.01" width="4.34" height="4.34" transform="translate(-13.91 8.51) rotate(-18)"/><rect class="cls-2" x="33.99" y="74.93" width="4.34" height="4.34" transform="translate(-22.05 14.95) rotate(-18)"/><rect class="cls-2" x="27.8" y="76.94" width="4.34" height="4.34" transform="translate(-22.98 13.13) rotate(-18)"/><rect class="cls-2" x="31.98" y="68.74" width="4.34" height="4.34" transform="translate(-20.24 14.02) rotate(-18)"/><rect class="cls-2" x="25.79" y="70.75" width="4.34" height="4.34" transform="translate(-21.16 12.21) rotate(-18)"/><rect class="cls-2" x="29.97" y="62.56" width="4.34" height="4.34" transform="translate(-18.43 13.1) rotate(-18)"/><rect class="cls-2" x="23.78" y="64.57" width="4.34" height="4.34" transform="matrix(0.95, -0.31, 0.31, 0.95, -19.35, 11.29)"/><rect class="cls-2" x="27.96" y="56.37" width="4.34" height="4.34" transform="translate(-16.61 12.18) rotate(-18)"/><rect class="cls-2" x="21.78" y="58.38" width="4.34" height="4.34" transform="translate(-17.54 10.36) rotate(-18)"/><rect class="cls-2" x="25.95" y="50.19" width="4.34" height="4.34" transform="translate(-14.8 11.25) rotate(-18)"/><rect class="cls-2" x="19.77" y="52.2" width="4.34" height="4.34" transform="translate(-15.73 9.44) rotate(-18)"/><rect class="cls-2" x="17.76" y="46.01" width="4.34" height="4.34" transform="translate(-13.91 8.51) rotate(-18)"/><path class="cls-5" d="M88.08,20.45,67.73,49.51a9.13,9.13,0,0,0-1.45,3.39l-1.45,7.23A1.8,1.8,0,0,0,67.54,62l6.29-3.83a8.9,8.9,0,0,0,2.7-2.52L96.87,26.61a5.37,5.37,0,0,0-1.31-7.47h0A5.36,5.36,0,0,0,88.08,20.45Z"/><path class="cls-1" d="M95.56,19.14h0a5.36,5.36,0,0,0-7.47,1.32l-2,2.88,8.79,6.16,2-2.88A5.37,5.37,0,0,0,95.56,19.14Z"/><path class="cls-6" d="M67.38,50l.35-.5a9.13,9.13,0,0,0-1.45,3.39l-1.45,7.23A1.8,1.8,0,0,0,67.54,62l6.29-3.83a8.9,8.9,0,0,0,2.7-2.52l-.36.5-.49-2.86a.91.91,0,0,0-1.05-.73l-2,.35a.91.91,0,0,1-1-.73l-.34-2a.89.89,0,0,0-1-.73Z"/><path class="cls-7" d="M65.37,57.44l-.54,2.69A1.8,1.8,0,0,0,67.54,62l2.34-1.42h0a3.89,3.89,0,0,0-4.5-3.15Z"/><rect class="cls-8" x="88.87" y="21.75" width="2.19" height="10.73" transform="translate(16.15 85.26) rotate(-55)"/><rect class="cls-8" x="86.5" y="25.06" width="2.19" height="10.73" transform="translate(12.43 84.73) rotate(-55)"/></svg>